<svg width="196" height="58" viewBox="0 0 196 58" fill="none" xmlns="http://www.w3.org/2000/svg">
<g filter="url(#filter0_d_2872_40752)">
<rect x="1" width="193.918" height="55.8284" rx="5.03731" fill="white"/>
<rect x="1.41978" y="0.419776" width="193.078" height="54.9888" rx="4.61754" stroke="#E0E0E0" stroke-width="0.839552"/>
<g clip-path="url(#clip0_2872_40752)">
<path d="M42.8479 30.1568C42.8018 30.4567 42.7581 30.7566 42.709 31.056C42.5894 31.7864 42.3784 32.4746 41.9565 33.0792C41.5009 33.733 40.8725 34.0565 40.1479 34.1138C38.4018 34.2519 37.3272 33.3957 36.9356 31.561C36.5971 29.9758 36.5956 28.3843 36.9887 26.8045C37.3431 25.3811 38.3125 24.4772 39.6084 24.4359C40.9559 24.3925 41.9278 24.9527 42.4335 26.4741C42.6375 27.0883 42.7134 27.7518 42.8479 28.3928C42.8479 28.9808 42.8479 29.5688 42.8479 30.1568ZM41.6612 29.5458C41.5456 28.3323 41.5833 27.3732 41.1247 26.5218C40.9083 26.1196 40.6259 25.7886 40.1762 25.6944C39.2456 25.4989 38.5512 25.9129 38.2564 26.8838C37.7918 28.4153 37.8206 29.9673 38.1943 31.5117C38.2693 31.8212 38.4226 32.1383 38.6162 32.3803C39.4024 33.3646 40.8487 33.0604 41.2408 31.7853C41.487 30.9842 41.558 30.1204 41.6612 29.5458Z" fill="#6BCDF5"/>
<path d="M20.1909 25.6448C20.1909 27.8457 20.1909 30.0462 20.1909 32.2466C20.1909 32.6873 20.1855 33.1286 20.1914 33.5693C20.1949 33.8184 20.0951 33.926 19.8638 33.9196C19.5571 33.911 19.2489 33.9024 18.9426 33.9228C18.63 33.9437 18.5267 33.8109 18.5287 33.4767C18.5391 31.5788 18.5555 29.6804 18.5242 27.7825C18.5089 26.832 18.4096 25.882 18.3222 24.9347C18.2969 24.6578 18.3471 24.5411 18.6126 24.5603C18.7595 24.571 18.9104 24.5791 19.0558 24.5582C19.4181 24.5057 19.6747 24.6524 19.8336 25.0005C19.9328 25.2185 20.0604 25.2308 20.2455 25.1119C20.8684 24.7114 21.538 24.4377 22.2651 24.3836C23.0027 24.3285 23.702 24.4623 24.2316 25.0825C24.3899 25.2683 24.5041 25.2046 24.6738 25.1344C25.2858 24.8822 25.8893 24.5523 26.5256 24.4307C28.2409 24.1041 29.4222 25.1408 29.4604 27.0087C29.5046 29.1872 29.4704 31.3678 29.4753 33.5474C29.4758 33.8098 29.3845 33.9297 29.1334 33.9206C28.8266 33.9094 28.5184 33.9051 28.2122 33.9222C27.9198 33.9388 27.8076 33.821 27.8116 33.4986C27.824 32.4335 27.8161 31.3678 27.8161 30.3027C27.8161 29.3109 27.8295 28.3186 27.8081 27.3274C27.8007 26.9916 27.7352 26.6472 27.6409 26.3254C27.5257 25.9318 27.2299 25.7379 26.8502 25.7615C26.546 25.7802 26.2457 25.8836 25.9424 25.8938C25.5325 25.9077 25.1205 25.8681 24.6942 25.8509C24.7309 26.0571 24.8167 26.3458 24.8287 26.6376C24.8659 27.5416 24.8862 28.4466 24.8927 29.3516C24.9026 30.6738 24.8957 31.9965 24.8952 33.3193C24.8952 33.9185 24.8942 33.9185 24.3229 33.919C24.1407 33.919 23.9591 33.919 23.7769 33.919C23.1873 33.9185 23.1868 33.9185 23.1868 33.2646C23.1868 31.9665 23.1868 30.6684 23.1868 29.3703C23.1868 28.5869 23.1927 27.8029 23.1813 27.0194C23.1779 26.8031 23.1476 26.5776 23.0826 26.3736C22.9416 25.9313 22.691 25.7524 22.2547 25.7588C22.0745 25.7615 21.8924 25.7931 21.7152 25.8322C21.1677 25.9516 20.6312 25.9934 20.1909 25.6448Z" fill="#5C5959"/>
<path d="M14.3277 24.845C14.3277 25.6434 14.3277 26.3509 14.3277 27.0577C14.3277 28.1957 14.3039 29.3348 14.3391 30.4717C14.354 30.952 14.4374 31.449 14.5863 31.9015C14.8201 32.6105 15.2896 32.8729 15.984 32.7776C16.2307 32.7439 16.4783 32.6887 16.7161 32.61C16.9578 32.5297 17.1156 32.565 17.1682 32.8569C17.1727 32.8804 17.1831 32.9029 17.1896 32.9265C17.4273 33.7662 17.6169 33.6848 16.6486 33.9782C15.7477 34.2513 14.8633 34.2085 14.0562 33.6484C13.2993 33.123 12.9678 32.2935 12.8884 31.382C12.802 30.3865 12.8228 29.3798 12.808 28.3778C12.7975 27.6929 12.796 27.0069 12.8104 26.3219C12.8169 26.0097 12.7216 25.8673 12.4193 25.8887C12.1702 25.9064 11.9195 25.8946 11.6694 25.8903C11.4971 25.8876 11.2951 25.8973 11.3066 25.6279C11.3175 25.3709 11.1711 25.034 11.5433 24.9178C11.8272 24.8295 12.1116 24.7357 12.402 24.6822C12.7251 24.6222 12.8278 24.4428 12.8124 24.0996C12.7896 23.5742 12.8144 23.0473 12.8035 22.5214C12.798 22.2718 12.8889 22.1358 13.1102 22.071C13.3951 21.9875 13.6785 21.8948 13.9565 21.7883C14.2195 21.687 14.3362 21.7513 14.3312 22.0716C14.3208 22.7688 14.3387 23.4671 14.3238 24.1644C14.3173 24.4723 14.4255 24.5729 14.703 24.5644C15.237 24.5483 15.7716 24.5708 16.3056 24.5558C16.59 24.5478 16.7131 24.6426 16.7161 24.9714C16.725 25.9273 16.7071 25.9562 15.8108 25.8876C15.0926 25.8325 14.905 25.7066 14.3277 24.845Z" fill="#5C5959"/>
<path d="M34.5924 25.6689C33.4628 25.888 32.3818 25.6839 31.3112 25.7503C30.9965 25.7696 30.866 25.6341 30.9022 25.3021C30.9037 25.2898 30.9022 25.2775 30.9022 25.2652C30.8958 24.5743 30.8958 24.5738 31.5261 24.5738C32.8568 24.5738 34.1874 24.5674 35.5176 24.5808C35.7017 24.5824 36.0338 24.6616 36.0422 24.7382C36.074 25.0236 36.0943 25.4028 35.9489 25.6036C35.3627 26.4117 34.7121 27.1657 34.0877 27.9422C33.9949 28.0579 33.9149 28.1859 33.8216 28.3192C34.1984 28.4665 34.5488 28.5698 34.8714 28.7358C36.4825 29.5638 36.6061 31.4332 35.8839 32.6901C35.1592 33.9502 33.9864 34.2768 32.7113 34.0905C32.0214 33.9898 31.4164 33.6471 30.856 33.2101C30.6084 33.0168 30.5151 32.84 30.7444 32.523C31.1524 31.9586 31.1315 31.9436 31.6948 32.3404C32.3713 32.8165 33.1005 33.0393 33.8981 32.7908C34.649 32.5568 35.0669 31.9575 35.0649 31.1805C35.063 30.4109 34.6346 29.8074 33.8782 29.5916C33.5199 29.4893 33.1402 29.4609 32.7679 29.4309C32.5575 29.4138 32.3957 29.3763 32.3088 29.1407C32.2244 28.9115 32.1788 28.7043 32.352 28.4933C33.0131 27.6868 33.6703 26.8765 34.3254 26.0642C34.4242 25.9404 34.5041 25.8007 34.5924 25.6689Z" fill="#6BCDF5"/>
</g>
<path d="M51.3556 23.9141H49.9865L53.0627 15.3659H54.5528L57.6289 23.9141H56.2599L53.8432 16.9186H53.7764L51.3556 23.9141ZM51.5851 20.5666H56.0262V21.6518H51.5851V20.5666ZM61.0599 24.0393C60.5423 24.0393 60.0804 23.9071 59.6742 23.6428C59.2707 23.3756 58.9535 22.9958 58.7225 22.5033C58.4943 22.008 58.3802 21.4139 58.3802 20.721C58.3802 20.0282 58.4957 19.4355 58.7267 18.9429C58.9604 18.4504 59.2804 18.0734 59.6867 17.8118C60.0929 17.5502 60.5535 17.4195 61.0682 17.4195C61.4662 17.4195 61.7862 17.4862 62.0282 17.6198C62.2731 17.7506 62.4623 17.9036 62.5959 18.0789C62.7322 18.2542 62.838 18.4087 62.9131 18.5422H62.9882V15.3659H64.2362V23.9141H63.0175V22.9165H62.9131C62.838 23.0528 62.7295 23.2087 62.5875 23.384C62.4484 23.5593 62.2564 23.7123 62.0115 23.8431C61.7667 23.9739 61.4495 24.0393 61.0599 24.0393ZM61.3354 22.9749C61.6943 22.9749 61.9976 22.8803 62.2453 22.6911C62.4957 22.4991 62.6849 22.2334 62.8129 21.8939C62.9437 21.5544 63.0091 21.1593 63.0091 20.7085C63.0091 20.2633 62.9451 19.8737 62.8171 19.5398C62.6891 19.2059 62.5013 18.9457 62.2536 18.7593C62.006 18.5728 61.6999 18.4796 61.3354 18.4796C60.9597 18.4796 60.6467 18.577 60.3962 18.7718C60.1458 18.9666 59.9566 19.2323 59.8286 19.569C59.7034 19.9057 59.6408 20.2855 59.6408 20.7085C59.6408 21.137 59.7048 21.5224 59.8328 21.8647C59.9608 22.2069 60.15 22.4782 60.4004 22.6786C60.6536 22.8762 60.9653 22.9749 61.3354 22.9749ZM66.0175 23.9141V17.5029H67.2154V18.5464H67.2947C67.4282 18.193 67.6467 17.9175 67.95 17.72C68.2533 17.5196 68.6164 17.4195 69.0394 17.4195C69.4679 17.4195 69.8268 17.5196 70.1162 17.72C70.4084 17.9203 70.6241 18.1958 70.7632 18.5464H70.83C70.983 18.2042 71.2265 17.9315 71.5604 17.7283C71.8943 17.5224 72.2922 17.4195 72.7541 17.4195C73.3357 17.4195 73.8101 17.6017 74.1774 17.9662C74.5475 18.3308 74.7326 18.8803 74.7326 19.6149V23.9141H73.4846V19.7318C73.4846 19.2977 73.3663 18.9833 73.1298 18.7885C72.8933 18.5937 72.6108 18.4963 72.2825 18.4963C71.8762 18.4963 71.5604 18.6215 71.335 18.872C71.1096 19.1196 70.9969 19.4382 70.9969 19.8278V23.9141H69.7531V19.6525C69.7531 19.3047 69.6446 19.025 69.4275 18.8135C69.2105 18.6021 68.9281 18.4963 68.5802 18.4963C68.3437 18.4963 68.1253 18.5589 67.9249 18.6842C67.7274 18.8066 67.5674 18.9777 67.4449 19.1975C67.3253 19.4174 67.2655 19.672 67.2655 19.9614V23.9141H66.0175ZM76.4053 23.9141V17.5029H77.6533V23.9141H76.4053ZM77.0355 16.5137C76.8185 16.5137 76.6321 16.4414 76.4762 16.2967C76.3232 16.1492 76.2467 15.9739 76.2467 15.7708C76.2467 15.5649 76.3232 15.3895 76.4762 15.2449C76.6321 15.0974 76.8185 15.0236 77.0355 15.0236C77.2526 15.0236 77.4376 15.0974 77.5907 15.2449C77.7465 15.3895 77.8244 15.5649 77.8244 15.7708C77.8244 15.9739 77.7465 16.1492 77.5907 16.2967C77.4376 16.4414 77.2526 16.5137 77.0355 16.5137ZM80.5802 20.1075V23.9141H79.3322V17.5029H80.5301V18.5464H80.6094C80.7569 18.2069 80.9879 17.9342 81.3023 17.7283C81.6195 17.5224 82.0188 17.4195 82.5002 17.4195C82.9371 17.4195 83.3197 17.5113 83.6481 17.6949C83.9764 17.8758 84.231 18.1457 84.4119 18.5047C84.5927 18.8636 84.6832 19.3075 84.6832 19.8362V23.9141H83.4352V19.9864C83.4352 19.5217 83.3141 19.1586 83.0721 18.897C82.83 18.6327 82.4974 18.5005 82.0745 18.5005C81.7851 18.5005 81.5277 18.5631 81.3023 18.6883C81.0797 18.8135 80.903 18.9972 80.7722 19.2393C80.6442 19.4786 80.5802 19.768 80.5802 20.1075ZM95.0647 15.3659H96.3587V20.9882C96.3587 21.5864 96.2181 22.1165 95.9371 22.5784C95.656 23.0375 95.2609 23.3993 94.7517 23.6636C94.2425 23.9252 93.6456 24.056 92.9611 24.056C92.2794 24.056 91.6839 23.9252 91.1747 23.6636C90.6654 23.3993 90.2703 23.0375 89.9893 22.5784C89.7082 22.1165 89.5677 21.5864 89.5677 20.9882V15.3659H90.8574V20.8838C90.8574 21.2706 90.9423 21.6142 91.112 21.9148C91.2846 22.2153 91.528 22.4518 91.8425 22.6243C92.1569 22.7941 92.5298 22.8789 92.9611 22.8789C93.3952 22.8789 93.7694 22.7941 94.0839 22.6243C94.4011 22.4518 94.6432 22.2153 94.8101 21.9148C94.9799 21.6142 95.0647 21.2706 95.0647 20.8838V15.3659ZM102.938 19.0682L101.807 19.2685C101.759 19.1238 101.684 18.9861 101.581 18.8553C101.481 18.7245 101.345 18.6174 101.172 18.5339C101 18.4504 100.784 18.4087 100.525 18.4087C100.172 18.4087 99.8769 18.488 99.6404 18.6466C99.4039 18.8024 99.2856 19.0042 99.2856 19.2518C99.2856 19.4661 99.3649 19.6386 99.5235 19.7694C99.6821 19.9002 99.9381 20.0073 100.292 20.0908L101.31 20.3245C101.9 20.4608 102.34 20.6709 102.629 20.9548C102.918 21.2386 103.063 21.6073 103.063 22.0608C103.063 22.4448 102.952 22.7871 102.729 23.0876C102.509 23.3854 102.202 23.6191 101.807 23.7888C101.414 23.9586 100.959 24.0435 100.442 24.0435C99.7239 24.0435 99.1381 23.8904 98.6846 23.5843C98.231 23.2755 97.9527 22.8372 97.8498 22.2695L99.056 22.0859C99.1312 22.4003 99.2856 22.6382 99.5193 22.7996C99.7531 22.9582 100.058 23.0375 100.433 23.0375C100.842 23.0375 101.169 22.9527 101.414 22.7829C101.659 22.6104 101.782 22.4003 101.782 22.1527C101.782 21.9523 101.706 21.784 101.556 21.6476C101.409 21.5113 101.182 21.4083 100.876 21.3388L99.7906 21.1008C99.1924 20.9645 98.75 20.7475 98.4633 20.4497C98.1795 20.152 98.0376 19.7749 98.0376 19.3186C98.0376 18.9402 98.1433 18.609 98.3548 18.3252C98.5663 18.0414 98.8585 17.8202 99.2313 17.6615C99.6042 17.5002 100.031 17.4195 100.513 17.4195C101.206 17.4195 101.751 17.5697 102.149 17.8702C102.547 18.168 102.81 18.5673 102.938 19.0682ZM107.198 24.0435C106.567 24.0435 106.023 23.9085 105.566 23.6386C105.113 23.3659 104.762 22.9833 104.514 22.4908C104.27 21.9955 104.147 21.4153 104.147 20.7502C104.147 20.0935 104.27 19.5148 104.514 19.0139C104.762 18.513 105.107 18.1221 105.55 17.841C105.995 17.56 106.515 17.4195 107.111 17.4195C107.472 17.4195 107.823 17.4793 108.162 17.5989C108.502 17.7186 108.807 17.9064 109.077 18.1624C109.346 18.4184 109.559 18.7509 109.715 19.16C109.871 19.5662 109.949 20.0602 109.949 20.6417V21.0842H104.853V20.1492H108.726C108.726 19.8208 108.659 19.5301 108.526 19.2768C108.392 19.0208 108.204 18.8191 107.962 18.6716C107.723 18.5242 107.442 18.4504 107.119 18.4504C106.768 18.4504 106.462 18.5367 106.201 18.7092C105.942 18.8789 105.742 19.1015 105.6 19.377C105.461 19.6497 105.391 19.9461 105.391 20.2661V20.9965C105.391 21.425 105.466 21.7895 105.616 22.0901C105.769 22.3906 105.982 22.6202 106.255 22.7788C106.528 22.9346 106.846 23.0125 107.211 23.0125C107.447 23.0125 107.663 22.9791 107.858 22.9123C108.053 22.8428 108.221 22.7398 108.363 22.6035C108.505 22.4671 108.613 22.2988 108.688 22.0984L109.87 22.3113C109.775 22.6591 109.605 22.9638 109.36 23.2254C109.118 23.4841 108.814 23.6859 108.446 23.8306C108.082 23.9725 107.666 24.0435 107.198 24.0435ZM111.334 23.9141V17.5029H112.54V18.5214H112.607C112.724 18.1763 112.929 17.905 113.224 17.7075C113.522 17.5071 113.859 17.4069 114.234 17.4069C114.312 17.4069 114.404 17.4097 114.51 17.4153C114.618 17.4208 114.703 17.4278 114.765 17.4362V18.6299C114.714 18.616 114.625 18.6007 114.497 18.584C114.369 18.5645 114.241 18.5548 114.113 18.5548C113.818 18.5548 113.556 18.6174 113.325 18.7426C113.096 18.865 112.916 19.0362 112.782 19.256C112.648 19.473 112.582 19.7207 112.582 19.9989V23.9141H111.334Z" fill="#101828"/>
<path d="M50.5959 40.9141V34.5029H51.5809V40.9141H50.5959ZM51.0968 33.4344C50.9048 33.4344 50.7392 33.369 50.6001 33.2382C50.4637 33.1075 50.3956 32.9502 50.3956 32.7666C50.3956 32.5829 50.4637 32.4257 50.6001 32.2949C50.7392 32.1642 50.9048 32.0988 51.0968 32.0988C51.2888 32.0988 51.4529 32.1642 51.5893 32.2949C51.7284 32.4257 51.798 32.5829 51.798 32.7666C51.798 32.9502 51.7284 33.1075 51.5893 33.2382C51.4529 33.369 51.2888 33.4344 51.0968 33.4344ZM54.3702 37.0574V40.9141H53.3851V34.5029H54.3368V35.5047H54.4202C54.5705 35.1791 54.7987 34.9175 55.1048 34.72C55.4109 34.5196 55.806 34.4195 56.2902 34.4195C56.7242 34.4195 57.1041 34.5085 57.4296 34.6866C57.7552 34.8619 58.0084 35.129 58.1893 35.488C58.3702 35.8442 58.4606 36.2949 58.4606 36.8403V40.9141H57.4755V36.9071C57.4755 36.4035 57.3448 36.0111 57.0832 35.7301C56.8216 35.4462 56.4627 35.3043 56.0063 35.3043C55.6919 35.3043 55.4109 35.3725 55.1632 35.5088C54.9183 35.6452 54.7249 35.8442 54.583 36.1057C54.4411 36.3673 54.3702 36.6845 54.3702 37.0574ZM63.1155 34.5029V35.3377H59.6595V34.5029H63.1155ZM60.6947 40.9141V33.6181C60.6947 33.2508 60.7809 32.9447 60.9535 32.6998C61.126 32.4549 61.35 32.2713 61.6255 32.1489C61.9009 32.0264 62.1917 31.9652 62.4978 31.9652C62.7399 31.9652 62.9375 31.9847 63.0905 32.0236C63.2435 32.0626 63.3576 32.0988 63.4328 32.1322L63.1489 32.9836C63.0988 32.9669 63.0293 32.9461 62.9402 32.921C62.854 32.896 62.7399 32.8835 62.598 32.8835C62.2724 32.8835 62.0373 32.9655 61.8926 33.1297C61.7507 33.2939 61.6797 33.5346 61.6797 33.8518V40.9141H60.6947ZM66.8366 41.0476C66.2578 41.0476 65.75 40.9099 65.3131 40.6344C64.879 40.3589 64.5395 39.9735 64.2947 39.4782C64.0526 38.9829 63.9315 38.4042 63.9315 37.7419C63.9315 37.0741 64.0526 36.4911 64.2947 35.993C64.5395 35.4949 64.879 35.1082 65.3131 34.8327C65.75 34.5572 66.2578 34.4195 66.8366 34.4195C67.4154 34.4195 67.9218 34.5572 68.3559 34.8327C68.7928 35.1082 69.1322 35.4949 69.3743 35.993C69.6192 36.4911 69.7416 37.0741 69.7416 37.7419C69.7416 38.4042 69.6192 38.9829 69.3743 39.4782C69.1322 39.9735 68.7928 40.3589 68.3559 40.6344C67.9218 40.9099 67.4154 41.0476 66.8366 41.0476ZM66.8366 40.1628C67.2762 40.1628 67.638 40.0501 67.9218 39.8247C68.2056 39.5993 68.4157 39.3029 68.5521 38.9356C68.6884 38.5683 68.7566 38.1704 68.7566 37.7419C68.7566 37.3134 68.6884 36.9141 68.5521 36.544C68.4157 36.1739 68.2056 35.8748 67.9218 35.6466C67.638 35.4184 67.2762 35.3043 66.8366 35.3043C66.3969 35.3043 66.0352 35.4184 65.7514 35.6466C65.4675 35.8748 65.2575 36.1739 65.1211 36.544C64.9848 36.9141 64.9166 37.3134 64.9166 37.7419C64.9166 38.1704 64.9848 38.5683 65.1211 38.9356C65.2575 39.3029 65.4675 39.5993 65.7514 39.8247C66.0352 40.0501 66.3969 40.1628 66.8366 40.1628ZM76.1705 43.168C75.319 43.168 74.5663 43.0511 73.9124 42.8174C73.2585 42.5864 72.7089 42.2455 72.2637 41.7948C71.8185 41.344 71.4818 40.7916 71.2536 40.1377C71.0255 39.4838 70.9114 38.7353 70.9114 37.8922C70.9114 37.0768 71.0268 36.3478 71.2578 35.705C71.4915 35.0622 71.8296 34.5168 72.2721 34.0688C72.7173 33.6181 73.2571 33.2744 73.8915 33.0379C74.5288 32.8014 75.2494 32.6831 76.0536 32.6831C76.8355 32.6831 77.5201 32.8111 78.1072 33.0671C78.6971 33.3203 79.1896 33.664 79.5847 34.0981C79.9827 34.5294 80.2804 35.0149 80.478 35.5548C80.6783 36.0946 80.7785 36.6511 80.7785 37.2243C80.7785 37.6278 80.759 38.0368 80.7201 38.4515C80.6811 38.8661 80.599 39.2473 80.4738 39.5951C80.3486 39.9402 80.1552 40.2184 79.8936 40.4299C79.6348 40.6414 79.2842 40.7471 78.8418 40.7471C78.647 40.7471 78.4327 40.7165 78.199 40.6553C77.9653 40.5941 77.758 40.4925 77.5771 40.3506C77.3962 40.2087 77.2891 40.0181 77.2557 39.7788H77.2056C77.1388 39.9402 77.0359 40.0932 76.8968 40.2379C76.7604 40.3826 76.5809 40.4981 76.3583 40.5843C76.1385 40.6706 75.87 40.7081 75.5528 40.697C75.191 40.6831 74.8724 40.6024 74.5969 40.4549C74.3214 40.3047 74.0905 40.1015 73.9041 39.8455C73.7204 39.5868 73.5813 39.2876 73.4867 38.9482C73.3948 38.6059 73.3489 38.2372 73.3489 37.8421C73.3489 37.4664 73.4046 37.1228 73.5159 36.8111C73.6272 36.4995 73.7816 36.2268 73.9792 35.993C74.1795 35.7593 74.4133 35.5728 74.6804 35.4337C74.9503 35.2918 75.2411 35.2042 75.5528 35.1708C75.831 35.1429 76.0842 35.1555 76.3124 35.2083C76.5406 35.2584 76.7284 35.3349 76.8759 35.4379C77.0234 35.5381 77.1166 35.6494 77.1555 35.7718H77.2056V35.3043H78.0905V39.0775C78.0905 39.3113 78.1559 39.5172 78.2867 39.6953C78.4174 39.8734 78.6081 39.9624 78.8585 39.9624C79.1423 39.9624 79.3594 39.865 79.5096 39.6702C79.6627 39.4755 79.767 39.1749 79.8227 38.7687C79.8811 38.3624 79.9103 37.8421 79.9103 37.2076C79.9103 36.8348 79.8588 36.4675 79.7559 36.1057C79.6557 35.7412 79.5027 35.4003 79.2967 35.0831C79.0936 34.7659 78.8362 34.4862 78.5246 34.2442C78.2129 34.0021 77.847 33.8128 77.4268 33.6765C77.0094 33.5374 76.535 33.4678 76.0035 33.4678C75.3496 33.4678 74.7639 33.5694 74.2463 33.7725C73.7315 33.9729 73.2933 34.2664 72.9315 34.6532C72.5726 35.0372 72.2985 35.5047 72.1093 36.0556C71.9228 36.6038 71.8296 37.2271 71.8296 37.9255C71.8296 38.6351 71.9228 39.2654 72.1093 39.8163C72.2985 40.3673 72.5768 40.832 72.9441 41.2104C73.3141 41.5888 73.7719 41.8755 74.3173 42.0702C74.8627 42.2678 75.4915 42.3666 76.2039 42.3666C76.51 42.3666 76.8119 42.3374 77.1096 42.2789C77.4074 42.2205 77.6703 42.1565 77.8985 42.0869C78.1267 42.0174 78.2908 41.9659 78.391 41.9325L78.6247 42.7005C78.4522 42.7728 78.2268 42.8452 77.9486 42.9175C77.6731 42.9899 77.3781 43.0497 77.0637 43.097C76.7521 43.1443 76.4543 43.168 76.1705 43.168ZM75.6863 39.8455C76.0592 39.8455 76.3611 39.7704 76.5921 39.6202C76.823 39.4699 76.9914 39.2431 77.0971 38.9398C77.2028 38.6365 77.2557 38.2539 77.2557 37.792C77.2557 37.3245 77.1973 36.96 77.0804 36.6984C76.9635 36.4368 76.791 36.2532 76.5628 36.1475C76.3347 36.0417 76.0536 35.9888 75.7197 35.9888C75.4025 35.9888 75.1312 36.0723 74.9058 36.2393C74.6832 36.4035 74.5121 36.6233 74.3924 36.8988C74.2755 37.1715 74.2171 37.4692 74.2171 37.792C74.2171 38.1482 74.2644 38.4835 74.359 38.7979C74.4536 39.1095 74.6081 39.3628 74.8223 39.5575C75.0366 39.7495 75.3246 39.8455 75.6863 39.8455ZM85.0411 34.5029V35.3377H81.7187V34.5029H85.0411ZM82.687 32.9669H83.6721V39.0775C83.6721 39.3558 83.7124 39.5645 83.7931 39.7036C83.8766 39.84 83.9823 39.9318 84.1103 39.9791C84.2411 40.0236 84.3788 40.0459 84.5235 40.0459C84.632 40.0459 84.7211 40.0403 84.7907 40.0292C84.8602 40.0153 84.9159 40.0042 84.9576 39.9958L85.158 40.8807C85.0912 40.9057 84.998 40.9308 84.8783 40.9558C84.7587 40.9836 84.607 40.9975 84.4234 40.9975C84.1451 40.9975 83.8724 40.9377 83.6053 40.8181C83.3409 40.6984 83.1211 40.5161 82.9458 40.2713C82.7733 40.0264 82.687 39.7175 82.687 39.3447V32.9669ZM86.5228 40.9141V34.5029H87.4745V35.5047H87.558C87.6915 35.1624 87.9072 34.8967 88.2049 34.7075C88.5027 34.5155 88.8602 34.4195 89.2776 34.4195C89.7006 34.4195 90.0526 34.5155 90.3336 34.7075C90.6174 34.8967 90.8387 35.1624 90.9973 35.5047H91.064C91.2282 35.1735 91.4745 34.9106 91.8028 34.7158C92.1312 34.5182 92.5249 34.4195 92.984 34.4195C93.5573 34.4195 94.0261 34.5989 94.3907 34.9579C94.7552 35.3141 94.9374 35.8692 94.9374 36.6233V40.9141H93.9524V36.6233C93.9524 36.1502 93.823 35.8122 93.5642 35.609C93.3054 35.4059 93.0007 35.3043 92.6501 35.3043C92.1993 35.3043 91.8501 35.4407 91.6025 35.7134C91.3548 35.9833 91.231 36.3255 91.231 36.7402V40.9141H90.2293V36.5231C90.2293 36.1586 90.111 35.865 89.8745 35.6424C89.638 35.417 89.3333 35.3043 88.9604 35.3043C88.7044 35.3043 88.4651 35.3725 88.2425 35.5088C88.0227 35.6452 87.8446 35.8344 87.7082 36.0765C87.5747 36.3158 87.5079 36.5927 87.5079 36.9071V40.9141H86.5228ZM99.6101 41.0309C99.0592 41.0309 98.568 40.9363 98.1367 40.7471C97.7082 40.5579 97.3673 40.2949 97.1141 39.9582C96.8637 39.6188 96.7273 39.225 96.7051 38.777H97.7569C97.7792 39.0525 97.8738 39.2904 98.0407 39.4908C98.2077 39.6883 98.4261 39.8414 98.696 39.9499C98.966 40.0584 99.2651 40.1127 99.5934 40.1127C99.9607 40.1127 100.286 40.0487 100.57 39.9207C100.854 39.7927 101.077 39.6146 101.238 39.3864C101.399 39.1582 101.48 38.8939 101.48 38.5934C101.48 38.2789 101.402 38.0021 101.246 37.7628C101.09 37.5207 100.862 37.3315 100.562 37.1951C100.261 37.0588 99.894 36.9906 99.4599 36.9906H98.7753V36.0723H99.4599C99.7993 36.0723 100.097 36.0111 100.353 35.8887C100.612 35.7662 100.814 35.5937 100.958 35.3711C101.106 35.1485 101.18 34.8869 101.18 34.5864C101.18 34.297 101.116 34.0452 100.988 33.8309C100.86 33.6167 100.679 33.4497 100.445 33.3301C100.214 33.2104 99.9413 33.1506 99.6268 33.1506C99.3319 33.1506 99.0536 33.2049 98.792 33.3134C98.5333 33.4191 98.3218 33.5735 98.1576 33.7767C97.9934 33.977 97.9044 34.2191 97.8905 34.5029H96.8887C96.9054 34.0549 97.0404 33.6626 97.2936 33.3259C97.5468 32.9864 97.878 32.7221 98.287 32.5329C98.6988 32.3436 99.151 32.249 99.6435 32.249C100.172 32.249 100.626 32.3562 101.004 32.5704C101.383 32.7819 101.673 33.0615 101.877 33.4094C102.08 33.7572 102.181 34.1328 102.181 34.5363C102.181 35.0177 102.055 35.4282 101.801 35.7676C101.551 36.1071 101.21 36.3422 100.779 36.473V36.5398C101.319 36.6288 101.74 36.8584 102.044 37.2285C102.347 37.5958 102.498 38.0508 102.498 38.5934C102.498 39.0581 102.372 39.4755 102.119 39.8455C101.868 40.2128 101.526 40.5022 101.092 40.7137C100.658 40.9252 100.164 41.0309 99.6101 41.0309ZM106.994 41.0309C106.365 41.0309 105.829 40.8598 105.387 40.5175C104.944 40.1725 104.606 39.673 104.373 39.0191C104.139 38.3624 104.022 37.5694 104.022 36.64C104.022 35.7162 104.139 34.9273 104.373 34.2734C104.609 33.6167 104.949 33.1158 105.391 32.7708C105.836 32.4229 106.37 32.249 106.994 32.249C107.617 32.249 108.15 32.4229 108.592 32.7708C109.038 33.1158 109.377 33.6167 109.611 34.2734C109.847 34.9273 109.966 35.7162 109.966 36.64C109.966 37.5694 109.849 38.3624 109.615 39.0191C109.381 39.673 109.043 40.1725 108.601 40.5175C108.158 40.8598 107.623 41.0309 106.994 41.0309ZM106.994 40.1127C107.617 40.1127 108.101 39.8122 108.446 39.2111C108.791 38.6101 108.964 37.753 108.964 36.64C108.964 35.8998 108.885 35.2695 108.726 34.7492C108.57 34.2288 108.345 33.8323 108.05 33.5596C107.758 33.2869 107.406 33.1506 106.994 33.1506C106.376 33.1506 105.893 33.4553 105.545 34.0647C105.198 34.6713 105.024 35.5297 105.024 36.64C105.024 37.3802 105.102 38.009 105.257 38.5266C105.413 39.0442 105.637 39.4379 105.929 39.7078C106.224 39.9777 106.579 40.1127 106.994 40.1127ZM115.609 38.2928V34.5029H116.594V40.9141H115.609V39.8288H115.542C115.392 40.1544 115.158 40.4313 114.841 40.6595C114.524 40.8848 114.123 40.9975 113.639 40.9975C113.238 40.9975 112.882 40.9099 112.57 40.7346C112.258 40.5565 112.014 40.2894 111.836 39.9332C111.657 39.5742 111.568 39.1221 111.568 38.5767V34.5029H112.553V38.5099C112.553 38.9774 112.684 39.3502 112.946 39.6285C113.21 39.9068 113.547 40.0459 113.956 40.0459C114.201 40.0459 114.45 39.9833 114.703 39.8581C114.959 39.7328 115.173 39.5408 115.346 39.2821C115.521 39.0233 115.609 38.6935 115.609 38.2928ZM122.939 35.9388L122.054 36.1892C121.999 36.0417 121.917 35.8984 121.808 35.7593C121.702 35.6174 121.558 35.5005 121.374 35.4087C121.19 35.3168 120.955 35.2709 120.669 35.2709C120.276 35.2709 119.949 35.3614 119.688 35.5422C119.429 35.7203 119.3 35.9471 119.3 36.2226C119.3 36.4675 119.389 36.6608 119.567 36.8028C119.745 36.9447 120.023 37.0629 120.401 37.1575L121.353 37.3913C121.926 37.5304 122.353 37.7433 122.634 38.0299C122.916 38.3137 123.056 38.6796 123.056 39.1276C123.056 39.4949 122.95 39.8233 122.739 40.1127C122.53 40.4021 122.238 40.6302 121.862 40.7972C121.487 40.9641 121.05 41.0476 120.552 41.0476C119.898 41.0476 119.357 40.9057 118.928 40.6219C118.5 40.3381 118.228 39.9235 118.114 39.3781L119.049 39.1443C119.138 39.4894 119.306 39.7482 119.554 39.9207C119.805 40.0932 120.132 40.1795 120.535 40.1795C120.994 40.1795 121.359 40.0821 121.629 39.8873C121.901 39.6897 122.038 39.4532 122.038 39.1777C122.038 38.9551 121.96 38.7687 121.804 38.6184C121.648 38.4654 121.409 38.3513 121.086 38.2762L120.017 38.0257C119.43 37.8866 118.999 37.6709 118.724 37.3788C118.451 37.0838 118.314 36.7151 118.314 36.2727C118.314 35.9109 118.416 35.5909 118.619 35.3127C118.825 35.0344 119.105 34.816 119.458 34.6574C119.814 34.4988 120.218 34.4195 120.669 34.4195C121.303 34.4195 121.801 34.5586 122.163 34.8368C122.527 35.1151 122.786 35.4824 122.939 35.9388ZM129.08 35.9388L128.195 36.1892C128.139 36.0417 128.057 35.8984 127.949 35.7593C127.843 35.6174 127.698 35.5005 127.515 35.4087C127.331 35.3168 127.096 35.2709 126.809 35.2709C126.417 35.2709 126.09 35.3614 125.829 35.5422C125.57 35.7203 125.44 35.9471 125.44 36.2226C125.44 36.4675 125.529 36.6608 125.707 36.8028C125.886 36.9447 126.164 37.0629 126.542 37.1575L127.494 37.3913C128.067 37.5304 128.494 37.7433 128.775 38.0299C129.056 38.3137 129.197 38.6796 129.197 39.1276C129.197 39.4949 129.091 39.8233 128.88 40.1127C128.671 40.4021 128.379 40.6302 128.003 40.7972C127.627 40.9641 127.191 41.0476 126.693 41.0476C126.039 41.0476 125.497 40.9057 125.069 40.6219C124.64 40.3381 124.369 39.9235 124.255 39.3781L125.19 39.1443C125.279 39.4894 125.447 39.7482 125.695 39.9207C125.945 40.0932 126.272 40.1795 126.676 40.1795C127.135 40.1795 127.499 40.0821 127.769 39.8873C128.042 39.6897 128.178 39.4532 128.178 39.1777C128.178 38.9551 128.101 38.7687 127.945 38.6184C127.789 38.4654 127.55 38.3513 127.227 38.2762L126.158 38.0257C125.571 37.8866 125.14 37.6709 124.864 37.3788C124.592 37.0838 124.455 36.7151 124.455 36.2727C124.455 35.9109 124.557 35.5909 124.76 35.3127C124.966 35.0344 125.246 34.816 125.599 34.6574C125.955 34.4988 126.359 34.4195 126.809 34.4195C127.444 34.4195 127.942 34.5586 128.304 34.8368C128.668 35.1151 128.927 35.4824 129.08 35.9388ZM133.101 41.0476C132.566 41.0476 132.095 40.9127 131.686 40.6428C131.277 40.3701 130.957 39.9861 130.726 39.4908C130.495 38.9927 130.379 38.4042 130.379 37.7252C130.379 37.0518 130.495 36.4675 130.726 35.9722C130.957 35.4768 131.278 35.0942 131.69 34.8243C132.102 34.5544 132.577 34.4195 133.117 34.4195C133.535 34.4195 133.864 34.489 134.106 34.6282C134.351 34.7645 134.538 34.9203 134.666 35.0956C134.797 35.2682 134.898 35.4101 134.97 35.5214H135.054V32.3659H136.039V40.9141H135.087V39.929H134.97C134.898 40.0459 134.795 40.1934 134.662 40.3715C134.528 40.5468 134.337 40.704 134.09 40.8431C133.842 40.9795 133.512 41.0476 133.101 41.0476ZM133.234 40.1628C133.629 40.1628 133.963 40.0598 134.236 39.8539C134.509 39.6452 134.716 39.3572 134.858 38.9899C135 38.6198 135.071 38.1927 135.071 37.7085C135.071 37.2299 135.001 36.8111 134.862 36.4522C134.723 36.0904 134.517 35.8094 134.244 35.609C133.971 35.4059 133.635 35.3043 133.234 35.3043C132.817 35.3043 132.469 35.4115 132.191 35.6257C131.915 35.8372 131.708 36.1252 131.569 36.4897C131.432 36.8515 131.364 37.2577 131.364 37.7085C131.364 38.1648 131.434 38.5795 131.573 38.9523C131.715 39.3224 131.923 39.6174 132.199 39.8372C132.477 40.0542 132.822 40.1628 133.234 40.1628ZM138.698 40.9808C138.492 40.9808 138.315 40.9071 138.168 40.7596C138.02 40.6121 137.946 40.4355 137.946 40.2295C137.946 40.0236 138.02 39.8469 138.168 39.6995C138.315 39.552 138.492 39.4782 138.698 39.4782C138.904 39.4782 139.08 39.552 139.228 39.6995C139.375 39.8469 139.449 40.0236 139.449 40.2295C139.449 40.3659 139.414 40.4911 139.345 40.6052C139.278 40.7193 139.187 40.8111 139.073 40.8807C138.962 40.9475 138.837 40.9808 138.698 40.9808ZM143.821 41.0476C143.22 41.0476 142.703 40.9057 142.269 40.6219C141.834 40.3381 141.501 39.9471 141.267 39.449C141.033 38.9509 140.916 38.3819 140.916 37.7419C140.916 37.0908 141.036 36.5162 141.275 36.0181C141.517 35.5172 141.854 35.1262 142.285 34.8452C142.719 34.5614 143.226 34.4195 143.805 34.4195C144.255 34.4195 144.662 34.5029 145.023 34.6699C145.385 34.8368 145.681 35.0706 145.912 35.3711C146.143 35.6716 146.287 36.0222 146.342 36.4229H145.357C145.282 36.1308 145.115 35.872 144.856 35.6466C144.6 35.4184 144.255 35.3043 143.821 35.3043C143.437 35.3043 143.101 35.4045 142.811 35.6048C142.525 35.8024 142.301 36.0821 142.139 36.4438C141.981 36.8028 141.901 37.2243 141.901 37.7085C141.901 38.2038 141.979 38.6351 142.135 39.0024C142.294 39.3697 142.516 39.6549 142.803 39.8581C143.092 40.0612 143.432 40.1628 143.821 40.1628C144.077 40.1628 144.31 40.1182 144.518 40.0292C144.727 39.9402 144.904 39.8122 145.048 39.6452C145.193 39.4782 145.296 39.2779 145.357 39.0442H146.342C146.287 39.4226 146.149 39.7635 145.929 40.0668C145.712 40.3673 145.424 40.6066 145.065 40.7847C144.709 40.96 144.294 41.0476 143.821 41.0476ZM150.387 41.0476C149.808 41.0476 149.3 40.9099 148.863 40.6344C148.429 40.3589 148.09 39.9735 147.845 39.4782C147.603 38.9829 147.482 38.4042 147.482 37.7419C147.482 37.0741 147.603 36.4911 147.845 35.993C148.09 35.4949 148.429 35.1082 148.863 34.8327C149.3 34.5572 149.808 34.4195 150.387 34.4195C150.966 34.4195 151.472 34.5572 151.906 34.8327C152.343 35.1082 152.682 35.4949 152.925 35.993C153.169 36.4911 153.292 37.0741 153.292 37.7419C153.292 38.4042 153.169 38.9829 152.925 39.4782C152.682 39.9735 152.343 40.3589 151.906 40.6344C151.472 40.9099 150.966 41.0476 150.387 41.0476ZM150.387 40.1628C150.826 40.1628 151.188 40.0501 151.472 39.8247C151.756 39.5993 151.966 39.3029 152.102 38.9356C152.239 38.5683 152.307 38.1704 152.307 37.7419C152.307 37.3134 152.239 36.9141 152.102 36.544C151.966 36.1739 151.756 35.8748 151.472 35.6466C151.188 35.4184 150.826 35.3043 150.387 35.3043C149.947 35.3043 149.585 35.4184 149.302 35.6466C149.018 35.8748 148.808 36.1739 148.671 36.544C148.535 36.9141 148.467 37.3134 148.467 37.7419C148.467 38.1704 148.535 38.5683 148.671 38.9356C148.808 39.3029 149.018 39.5993 149.302 39.8247C149.585 40.0501 149.947 40.1628 150.387 40.1628ZM154.795 40.9141V34.5029H155.747V35.5047H155.831C155.964 35.1624 156.18 34.8967 156.478 34.7075C156.775 34.5155 157.133 34.4195 157.55 34.4195C157.973 34.4195 158.325 34.5155 158.606 34.7075C158.89 34.8967 159.111 35.1624 159.27 35.5047H159.337C159.501 35.1735 159.747 34.9106 160.075 34.7158C160.404 34.5182 160.798 34.4195 161.257 34.4195C161.83 34.4195 162.299 34.5989 162.663 34.9579C163.028 35.3141 163.21 35.8692 163.21 36.6233V40.9141H162.225V36.6233C162.225 36.1502 162.096 35.8122 161.837 35.609C161.578 35.4059 161.273 35.3043 160.923 35.3043C160.472 35.3043 160.123 35.4407 159.875 35.7134C159.627 35.9833 159.504 36.3255 159.504 36.7402V40.9141H158.502V36.5231C158.502 36.1586 158.384 35.865 158.147 35.6424C157.911 35.417 157.606 35.3043 157.233 35.3043C156.977 35.3043 156.738 35.3725 156.515 35.5088C156.295 35.6452 156.117 35.8344 155.981 36.0765C155.847 36.3158 155.781 36.5927 155.781 36.9071V40.9141H154.795Z" fill="#5A6376"/>
<path d="M175.608 26.6543L178.127 29.173L180.646 26.6543" stroke="#868FA0" stroke-width="1.25933" stroke-linecap="round" stroke-linejoin="round"/>
</g>
<defs>
<filter id="filter0_d_2872_40752" x="0.160448" y="0" width="195.597" height="57.5072" filterUnits="userSpaceOnUse" color-interpolation-filters="sRGB">
<feFlood flood-opacity="0" result="BackgroundImageFix"/>
<feColorMatrix in="SourceAlpha" type="matrix" values="0 0 0 0 0 0 0 0 0 0 0 0 0 0 0 0 0 0 127 0" result="hardAlpha"/>
<feOffset dy="0.839552"/>
<feGaussianBlur stdDeviation="0.419776"/>
<feColorMatrix type="matrix" values="0 0 0 0 0.27451 0 0 0 0 0.308497 0 0 0 0 0.376471 0 0 0 0.06 0"/>
<feBlend mode="normal" in2="BackgroundImageFix" result="effect1_dropShadow_2872_40752"/>
<feBlend mode="normal" in="SourceGraphic" in2="effect1_dropShadow_2872_40752" result="shape"/>
</filter>
<clipPath id="clip0_2872_40752">
<rect width="31.903" height="12.5933" fill="white" transform="translate(11.0742 21.6172)"/>
</clipPath>
</defs>
</svg>
