<svg width="38" height="25" viewBox="0 0 38 25" fill="none" xmlns="http://www.w3.org/2000/svg">
<path opacity="0.5" fill-rule="evenodd" clip-rule="evenodd" d="M34 11.5C34 15.4 30.9 18.5 27 18.5H7C3.1 18.5 0 15.4 0 11.5C0 7.6 3.1 4.5 7 4.5H27C30.9 4.5 34 7.6 34 11.5Z" fill="#169D07"/>
<g filter="url(#filter0_dd_3144_20322)">
<path fill-rule="evenodd" clip-rule="evenodd" d="M26 21.5C31.5228 21.5 36 17.0228 36 11.5C36 5.97715 31.5228 1.5 26 1.5C20.4772 1.5 16 5.97715 16 11.5C16 17.0228 20.4772 21.5 26 21.5Z" fill="#169D07"/>
<path d="M35.75 11.5C35.75 16.8848 31.3848 21.25 26 21.25C20.6152 21.25 16.25 16.8848 16.25 11.5C16.25 6.11522 20.6152 1.75 26 1.75C31.3848 1.75 35.75 6.11522 35.75 11.5Z" stroke="url(#paint0_linear_3144_20322)" stroke-width="0.5"/>
<path d="M35.75 11.5C35.75 16.8848 31.3848 21.25 26 21.25C20.6152 21.25 16.25 16.8848 16.25 11.5C16.25 6.11522 20.6152 1.75 26 1.75C31.3848 1.75 35.75 6.11522 35.75 11.5Z" stroke="url(#paint1_linear_3144_20322)" stroke-width="0.5"/>
</g>
<defs>
<filter id="filter0_dd_3144_20322" x="14" y="0.5" width="24" height="24" filterUnits="userSpaceOnUse" color-interpolation-filters="sRGB">
<feFlood flood-opacity="0" result="BackgroundImageFix"/>
<feColorMatrix in="SourceAlpha" type="matrix" values="0 0 0 0 0 0 0 0 0 0 0 0 0 0 0 0 0 0 127 0" result="hardAlpha"/>
<feOffset dy="1"/>
<feGaussianBlur stdDeviation="1"/>
<feColorMatrix type="matrix" values="0 0 0 0 0 0 0 0 0 0 0 0 0 0 0 0 0 0 0.2 0"/>
<feBlend mode="normal" in2="BackgroundImageFix" result="effect1_dropShadow_3144_20322"/>
<feColorMatrix in="SourceAlpha" type="matrix" values="0 0 0 0 0 0 0 0 0 0 0 0 0 0 0 0 0 0 127 0" result="hardAlpha"/>
<feOffset dy="0.1"/>
<feGaussianBlur stdDeviation="0.15"/>
<feColorMatrix type="matrix" values="0 0 0 0 0 0 0 0 0 0 0 0 0 0 0 0 0 0 0.1 0"/>
<feBlend mode="normal" in2="effect1_dropShadow_3144_20322" result="effect2_dropShadow_3144_20322"/>
<feBlend mode="normal" in="SourceGraphic" in2="effect2_dropShadow_3144_20322" result="shape"/>
</filter>
<linearGradient id="paint0_linear_3144_20322" x1="16.0979" y1="1.5" x2="16.0979" y2="21.3043" gradientUnits="userSpaceOnUse">
<stop stop-opacity="0.01"/>
<stop offset="0.8" stop-opacity="0.02"/>
<stop offset="1" stop-opacity="0.04"/>
</linearGradient>
<linearGradient id="paint1_linear_3144_20322" x1="16" y1="1.5" x2="16" y2="21.5" gradientUnits="userSpaceOnUse">
<stop stop-color="white" stop-opacity="0.12"/>
<stop offset="0.2" stop-color="white" stop-opacity="0.06"/>
<stop offset="1" stop-color="white" stop-opacity="0.01"/>
</linearGradient>
</defs>
</svg>
