<svg width="113" height="82" viewBox="0 0 113 82" fill="none" xmlns="http://www.w3.org/2000/svg">
<mask id="path-1-inside-1_57_105" fill="white">
<path fill-rule="evenodd" clip-rule="evenodd" d="M78.9043 13.771L75.7696 11.9612L74.587 9.91291L79.4956 12.7469C80.5549 13.3585 81.2074 14.4887 81.2074 15.7118V21.3797L80.0248 19.3315V15.7118C80.0248 14.9112 79.5977 14.1713 78.9043 13.771ZM80.0248 21.6966V19.3315L75.7696 11.9612L73.7213 10.7786L72.5387 8.73034L74.587 9.91291L71.7531 5.00442C71.1416 3.94517 70.0113 3.29265 68.7882 3.29265H63.1204L58.2118 0.458669C57.1525 -0.15289 55.8475 -0.152889 54.7882 0.45867L49.8796 3.29265H44.2118C42.9887 3.29265 41.8584 3.94517 41.2469 5.00443L38.413 9.91294L33.5044 12.7469C32.4452 13.3585 31.7926 14.4887 31.7926 15.7118V21.3797L28.9587 26.2883C28.3471 27.3475 28.3471 28.6526 28.9587 29.7118L31.7926 34.6204V40.2882C31.7926 41.5113 32.4452 42.6416 33.5044 43.2531L38.4129 46.087L41.2469 50.9956C41.8584 52.0549 42.9887 52.7074 44.2118 52.7074H49.8797L54.7882 55.5413C55.8475 56.1529 57.1525 56.1529 58.2118 55.5413L63.1203 52.7074H68.7882C70.0113 52.7074 71.1416 52.0549 71.7531 50.9956L74.5871 46.0871L79.4956 43.2531C80.5549 42.6416 81.2074 41.5113 81.2074 40.2882V34.6203L84.0413 29.7118C84.6529 28.6526 84.6529 27.3475 84.0413 26.2883L81.2074 21.3797V23.7449L80.0248 21.6966ZM80.0248 34.3035V21.6966L73.7213 10.7786L62.8035 4.47522H65.1687L72.5387 8.73034L70.729 5.59571C70.3287 4.90235 69.5888 4.47522 68.7882 4.47522H65.1687L63.1204 3.29265L60.7552 3.29265L57.6205 1.48281C56.9271 1.0825 56.0729 1.0825 55.3795 1.48281L52.2448 3.29265L49.8796 3.29265L47.8314 4.47522H44.2118C43.4112 4.47522 42.6713 4.90235 42.271 5.59571L40.4612 8.73037L38.413 9.91294L37.2304 11.9612L34.0957 13.771C33.4023 14.1713 32.9752 14.9112 32.9752 15.7118V19.3314L31.7926 21.3797V23.7448L29.9828 26.8795C29.5825 27.5729 29.5825 28.4272 29.9828 29.1205L31.7926 32.2552V34.6204L32.9752 36.6687V40.2882C32.9752 41.0888 33.4023 41.8287 34.0957 42.229L37.2303 44.0388L38.4129 46.087L40.4612 47.2696L42.271 50.4043C42.6713 51.0977 43.4112 51.5248 44.2118 51.5248H47.8315L49.8797 52.7074H52.2449L55.3795 54.5172C56.0729 54.9175 56.9271 54.9175 57.6205 54.5172L60.7551 52.7074H63.1203L65.1686 51.5248H68.7882C69.5889 51.5248 70.3287 51.0977 70.729 50.4043L72.5388 47.2696L74.5871 46.0871L75.7697 44.0388L78.9043 42.229C79.5977 41.8287 80.0248 41.0888 80.0248 40.2882V36.6686L81.2074 34.6203V32.2552L83.0172 29.1205C83.4175 28.4272 83.4175 27.5729 83.0172 26.8795L81.2074 23.7449V32.2552L80.0248 34.3035ZM73.7214 45.2214L80.0248 34.3035V36.6686L75.7697 44.0388L73.7214 45.2214ZM62.8034 51.5248L73.7214 45.2214L72.5388 47.2696L65.1686 51.5248H62.8034ZM50.1966 51.5248L62.8034 51.5248L60.7551 52.7074H52.2449L50.1966 51.5248ZM39.2786 45.2213L50.1966 51.5248H47.8315L40.4612 47.2696L39.2786 45.2213ZM32.9752 34.3035L39.2786 45.2213L37.2303 44.0388L32.9752 36.6687V34.3035ZM32.9752 21.6965V34.3035L31.7926 32.2552V23.7448L32.9752 21.6965ZM39.2787 10.7786L32.9752 21.6965V19.3314L37.2304 11.9612L39.2787 10.7786ZM50.1965 4.47522L62.8035 4.47522L60.7552 3.29265H52.2448L50.1965 4.47522ZM50.1965 4.47522L39.2787 10.7786L40.4612 8.73037L47.8314 4.47522H50.1965ZM60.3645 19.0849L60.3682 19.0886L57.6056 18.3484L57.6107 18.347C58.5945 18.0834 59.6443 18.3647 60.3645 19.0849ZM56.4993 18.6448L57.6056 18.3484L56.4993 18.052L57.4625 17.7939C58.644 17.4773 59.9045 17.8151 60.7694 18.68L61.4745 19.3851L60.3682 19.0886L61.1781 19.8985L56.4993 18.6448ZM51.8231 19.8978L56.4993 18.6448L55.393 18.3484L56.4993 18.052L55.5376 17.7943C54.3561 17.4777 53.0956 17.8155 52.2307 18.6803L51.5266 19.3844L50.5636 19.6424C49.3822 19.959 48.4594 20.8818 48.1428 22.0632L47.8848 23.0262L47.1804 23.7307C46.3155 24.5955 45.9777 25.8561 46.2943 27.0376L46.5521 27.9998L46.2943 28.9621C45.9777 30.1436 46.3155 31.4041 47.1804 32.269L47.8848 32.9734L48.1428 33.9364C48.4594 35.1179 49.3822 36.0407 50.5636 36.3573L51.5266 36.6153L52.2307 37.3193C53.0956 38.1842 54.3561 38.522 55.5376 38.2054L56.4993 37.9477L57.4625 38.2058C58.644 38.5224 59.9045 38.1846 60.7694 37.3197L61.4745 36.6146L62.4365 36.3569C63.6179 36.0403 64.5407 35.1175 64.8573 33.9361L65.115 32.9741L65.8197 32.2694C66.6846 31.4045 67.0224 30.1439 66.7058 28.9625L66.4479 27.9998L66.7058 27.0372C67.0224 25.8557 66.6846 24.5952 65.8197 23.7303L65.115 23.0256L64.8573 22.0636C64.5407 20.8822 63.6179 19.9594 62.4365 19.6428L61.4745 19.3851L62.2844 20.1949L61.1781 19.8985L64.6016 23.322L65.855 27.9998L64.6016 32.6777L61.1781 36.1012L56.4993 37.3549L51.8231 36.1019L48.3982 32.677L47.145 27.9998L48.3982 23.3227L51.8231 19.8978ZM50.7168 20.1943L51.8231 19.8978L52.6329 19.088L55.393 18.3484L55.3894 18.3474C54.4055 18.0838 53.3558 18.3651 52.6356 19.0853L52.6329 19.088L51.5266 19.3844L50.7168 20.1943ZM48.6947 22.2164L48.3982 23.3227L47.5884 24.1325L47.8848 23.0262L48.6947 22.2164ZM46.8485 26.8935L46.8474 26.8893C46.5838 25.9055 46.8651 24.8558 47.5853 24.1356L47.5884 24.1325L46.8485 26.8935ZM46.8485 26.8935L46.5521 27.9998L46.8485 29.1061L46.8474 29.1103C46.5838 30.0942 46.8651 31.1439 47.5853 31.8641L47.5884 31.8671L47.8848 32.9734L48.6947 33.7833L48.696 33.7882C48.9596 34.772 49.728 35.5405 50.7119 35.8041L50.7168 35.8054L51.5266 36.6153L52.6329 36.9117L52.6356 36.9144C53.3558 37.6346 54.4055 37.9159 55.3894 37.6523L55.393 37.6513L56.4993 37.9477L57.6056 37.6513L57.6107 37.6527C58.5945 37.9163 59.6443 37.635 60.3645 36.9148L60.3682 36.9111L61.4745 36.6146L62.2844 35.8048L62.2882 35.8037C63.2721 35.5401 64.0405 34.7717 64.3041 33.7878L64.3052 33.784L65.115 32.9741L65.4115 31.8678L65.4148 31.8645C66.135 31.1443 66.4163 30.0945 66.1527 29.1107L66.1514 29.1061L66.4479 27.9998L66.1514 26.8935L66.1527 26.889C66.4163 25.9051 66.135 24.8554 65.4148 24.1352L65.4115 24.1319L65.115 23.0256L64.3051 22.2157L64.3041 22.2118C64.0405 21.228 63.2721 20.4596 62.2882 20.196L62.2844 20.1949L64.3051 22.2157L64.6016 23.322L65.4115 24.1319L66.1514 26.8935L65.855 27.9998L66.1514 29.1061L65.4115 31.8678L64.6016 32.6777L64.3052 33.784L62.2844 35.8048L61.1781 36.1012L60.3682 36.9111L57.6056 37.6513L56.4993 37.3549L55.393 37.6513L52.6329 36.9117L51.8231 36.1019L50.7168 35.8054L48.6947 33.7833L48.3982 32.677L47.5884 31.8671L46.8485 29.1061L47.145 27.9998L46.8485 26.8935ZM48.6947 22.2164L50.7168 20.1943L50.7119 20.1956C49.728 20.4592 48.9596 21.2276 48.696 22.2115L48.6947 22.2164ZM66.2334 13.2075L66.7279 14.064L63.4543 12.174H64.4434C65.1818 12.174 65.8641 12.568 66.2334 13.2075ZM60.741 12.174L58.3913 10.8174H61.1045L63.4543 12.174H60.741ZM69.0777 15.4207L66.7279 14.064L68.0845 16.4138L60.741 12.174L52.2582 12.174L54.6079 10.8174L58.3913 10.8174L57.5331 10.3219C56.8935 9.95267 56.1056 9.95267 55.4661 10.3219L54.6079 10.8174H51.8947L54.7878 9.147C55.8471 8.53544 57.1521 8.53544 58.2114 9.147L61.1045 10.8174H64.4434C65.6665 10.8174 66.7967 11.4699 67.4082 12.5291L69.0777 15.4207ZM73.6823 23.3961V20.0557C73.6823 18.8326 73.0298 17.7024 71.9705 17.0908L69.0777 15.4207L70.4343 17.7704L68.0845 16.4138L72.3257 23.7596V32.2405L68.0854 39.5849L60.7393 43.8261L52.2599 43.8261L44.9136 39.5848L40.6735 32.2408V23.7593L44.9144 16.4139L52.2582 12.174H49.5449L51.8947 10.8174H48.5557C47.3325 10.8174 46.2023 11.4699 45.5908 12.5291L43.9213 15.4208L41.0287 17.0908C39.9694 17.7024 39.3169 18.8326 39.3169 20.0557V23.3958L37.6469 26.2883C37.0354 27.3475 37.0354 28.6526 37.6469 29.7118L39.3169 32.6043V35.9434C39.3169 37.1665 39.9694 38.2968 41.0287 38.9083L43.9204 40.5779L45.5908 43.471C46.2023 44.5302 47.3325 45.1828 48.5557 45.1828H51.8963L54.7878 46.8522C55.8471 47.4637 57.1521 47.4637 58.2114 46.8522L61.1028 45.1828H64.4434C65.6665 45.1828 66.7967 44.5302 67.4082 43.471L69.0785 40.578L71.9705 38.9083C73.0298 38.2968 73.6823 37.1665 73.6823 35.9434V32.604L75.3521 29.7118C75.9637 28.6526 75.9637 27.3475 75.3521 26.2883L73.6823 23.3961ZM73.6823 26.1094V23.3961L72.3257 21.0464V20.0557C72.3257 19.3173 71.9317 18.635 71.2922 18.2657L70.4343 17.7704L72.3257 21.0464V23.7596L73.6823 26.1094ZM73.6823 29.8907V26.1094L74.1772 26.9666C74.5464 27.6061 74.5464 28.394 74.1772 29.0335L73.6823 29.8907ZM73.6823 29.8907L72.3257 32.2405V34.9538L70.4351 38.2283L68.0854 39.5849L66.7287 41.9347L63.4526 43.8261H60.7393L58.3896 45.1828L54.6096 45.1828L52.2599 43.8261H49.5466L46.2702 41.9345L44.9136 39.5848L42.5638 38.2281L40.6735 34.9541V32.2408L39.3169 29.891V26.1091L40.6735 23.7593V21.0461L42.5646 17.7706L44.9144 16.4139L46.2711 14.0642L49.5449 12.174H48.5557C47.8172 12.174 47.1349 12.568 46.7657 13.2075L46.2711 14.0642L43.9213 15.4208L42.5646 17.7706L41.707 18.2657C41.0675 18.635 40.6735 19.3173 40.6735 20.0557V21.0461L39.3169 23.3958V26.1091L38.8218 26.9666C38.4526 27.6061 38.4526 28.394 38.8218 29.0335L39.3169 29.891V32.6043L40.6735 34.9541V35.9434C40.6735 36.6819 41.0675 37.3642 41.707 37.7334L42.5638 38.2281L43.9204 40.5779L46.2702 41.9345L46.7657 42.7927C47.1349 43.4322 47.8172 43.8261 48.5557 43.8261H49.5466L51.8963 45.1828H54.6096L55.4661 45.6773C56.1056 46.0465 56.8935 46.0465 57.5331 45.6773L58.3896 45.1828H61.1028L63.4526 43.8261H64.4434C65.1818 43.8261 65.8641 43.4322 66.2334 42.7927L66.7287 41.9347L69.0785 40.578L70.4351 38.2283L71.2922 37.7334C71.9317 37.3642 72.3257 36.6819 72.3257 35.9434V34.9538L73.6823 32.604V29.8907ZM59.2797 23.1858C57.5597 22.1927 55.4406 22.1927 53.7206 23.1858C52.0006 24.1788 50.941 26.014 50.941 28.0001C50.941 29.9862 52.0006 31.8215 53.7206 32.8145C55.4406 33.8076 57.5597 33.8076 59.2797 32.8145C60.9997 31.8215 62.0593 29.9862 62.0593 28.0001C62.0593 26.014 60.9997 24.1788 59.2797 23.1858Z"/>
</mask>
<path d="M78.9043 13.771L79.3048 13.0774V13.0774L78.9043 13.771ZM79.4956 12.7469L79.0952 13.4405L79.4956 12.7469ZM71.7531 5.00442L71.0595 5.40486V5.40486L71.7531 5.00442ZM58.2118 0.458669L57.8114 1.15225V1.15225L58.2118 0.458669ZM54.7882 0.45867L54.3878 -0.234914V-0.234914L54.7882 0.45867ZM44.2118 3.29265V2.49176V3.29265ZM41.2469 5.00443L40.5533 4.60399L41.2469 5.00443ZM33.5044 12.7469L33.104 12.0533L33.5044 12.7469ZM28.9587 26.2883L29.6523 26.6887H29.6523L28.9587 26.2883ZM28.9587 29.7118L28.2651 30.1122H28.2651L28.9587 29.7118ZM33.5044 43.2531L33.104 43.9467H33.104L33.5044 43.2531ZM41.2469 50.9956L41.9405 50.5952H41.9405L41.2469 50.9956ZM54.7882 55.5413L55.1887 54.8478H55.1887L54.7882 55.5413ZM58.2118 55.5413L57.8114 54.8478H57.8114L58.2118 55.5413ZM71.7531 50.9956L72.4467 51.3961L71.7531 50.9956ZM79.4956 43.2531L79.8961 43.9467L79.8961 43.9467L79.4956 43.2531ZM84.0413 29.7118L83.3478 29.3114V29.3114L84.0413 29.7118ZM84.0413 26.2883L83.3478 26.6887L84.0413 26.2883ZM70.729 5.59571L70.0354 5.99615V5.99615L70.729 5.59571ZM68.7882 4.47522V3.67434V4.47522ZM57.6205 1.48281L57.2201 2.17639V2.17639L57.6205 1.48281ZM55.3795 1.48281L54.9791 0.789226V0.789227L55.3795 1.48281ZM44.2118 4.47522V3.67434V4.47522ZM42.271 5.59571L42.9646 5.99615L42.9646 5.99615L42.271 5.59571ZM34.0957 13.771L33.6953 13.0774L34.0957 13.771ZM29.9828 26.8795L30.6764 27.28H30.6764L29.9828 26.8795ZM29.9828 29.1205L29.2892 29.521L29.2892 29.521L29.9828 29.1205ZM34.0957 42.229L33.6953 42.9226H33.6953L34.0957 42.229ZM42.271 50.4043L41.5774 50.8048L42.271 50.4043ZM55.3795 54.5172L54.9791 55.2108L55.3795 54.5172ZM57.6205 54.5172L58.0209 55.2108H58.021L57.6205 54.5172ZM68.7882 51.5248L68.7882 50.724H68.7882V51.5248ZM70.729 50.4043L70.0354 50.0039L70.729 50.4043ZM78.9043 42.229L78.5039 41.5354H78.5039L78.9043 42.229ZM83.0172 29.1205L83.7108 29.521V29.521L83.0172 29.1205ZM83.0172 26.8795L83.7108 26.4791V26.4791L83.0172 26.8795ZM57.6107 18.347L57.4034 17.5734L57.4034 17.5735L57.6107 18.347ZM57.4625 17.7939L57.2552 17.0203L57.4625 17.7939ZM60.7694 18.68L61.3357 18.1136H61.3357L60.7694 18.68ZM55.5376 17.7943L55.7449 17.0207L55.5376 17.7943ZM52.2307 18.6803L51.6644 18.114H51.6644L52.2307 18.6803ZM50.5636 19.6424L50.7709 20.416L50.5636 19.6424ZM48.1428 22.0632L47.3692 21.856L48.1428 22.0632ZM47.1804 23.7307L46.614 23.1644L47.1804 23.7307ZM46.2943 27.0376L47.0679 26.8303L46.2943 27.0376ZM46.2943 28.9621L47.0679 29.1694L46.2943 28.9621ZM48.1428 33.9364L48.9164 33.7292L48.1428 33.9364ZM50.5636 36.3573L50.7709 35.5837L50.5636 36.3573ZM55.5376 38.2054L55.3303 37.4318H55.3303L55.5376 38.2054ZM57.4625 38.2058L57.6698 37.4322L57.4625 38.2058ZM60.7694 37.3197L60.2031 36.7534V36.7534L60.7694 37.3197ZM62.4365 36.3569L62.6437 37.1305L62.4365 36.3569ZM64.8573 33.9361L65.6309 34.1433H65.6309L64.8573 33.9361ZM65.8197 32.2694L66.386 32.8357L66.386 32.8357L65.8197 32.2694ZM66.7058 28.9625L67.4794 28.7552L66.7058 28.9625ZM66.7058 27.0372L67.4794 27.2445L66.7058 27.0372ZM64.8573 22.0636L64.0837 22.2709L64.8573 22.0636ZM62.4365 19.6428L62.6437 18.8692L62.4365 19.6428ZM55.3894 18.3474L55.5967 17.5738L55.5966 17.5738L55.3894 18.3474ZM46.8474 26.8893L46.0738 27.0966L46.0738 27.0967L46.8474 26.8893ZM46.8474 29.1103L47.621 29.3176L47.621 29.3175L46.8474 29.1103ZM48.696 33.7882L49.4696 33.5809L49.4695 33.5808L48.696 33.7882ZM50.7119 35.8041L50.5046 36.5777L50.5048 36.5778L50.7119 35.8041ZM52.6356 36.9144L53.2019 36.3481L53.2017 36.3479L52.6356 36.9144ZM55.3894 37.6523L55.5966 38.4259L55.5967 38.4258L55.3894 37.6523ZM57.6107 37.6527L57.4034 38.4262L57.4034 38.4262L57.6107 37.6527ZM60.3645 36.9148L60.9308 37.4811L60.9309 37.481L60.3645 36.9148ZM62.2882 35.8037L62.081 35.0301L62.0807 35.0302L62.2882 35.8037ZM64.3041 33.7878L63.5306 33.5803L63.5305 33.5806L64.3041 33.7878ZM65.4148 31.8645L64.8485 31.2982L64.8483 31.2983L65.4148 31.8645ZM66.1527 29.1107L66.9263 28.9034L66.9262 28.9034L66.1527 29.1107ZM66.1527 26.889L65.3791 26.6817L65.379 26.6818L66.1527 26.889ZM65.4148 24.1352L64.8485 24.7015L65.4148 24.1352ZM64.3041 22.2118L65.0777 22.0046L65.0777 22.0046L64.3041 22.2118ZM62.2882 20.196L62.4955 19.4224L62.4955 19.4223L62.2882 20.196ZM50.7119 20.1956L50.5047 19.422L50.5046 19.422L50.7119 20.1956ZM48.696 22.2115L47.9224 22.0042L47.9224 22.0042L48.696 22.2115ZM66.2334 13.2075L65.5398 13.6079V13.6079L66.2334 13.2075ZM57.5331 10.3219L57.9335 9.6283L57.9335 9.6283L57.5331 10.3219ZM55.4661 10.3219L55.0657 9.6283L55.4661 10.3219ZM54.7878 9.147L54.3874 8.45342L54.7878 9.147ZM58.2114 9.147L58.6118 8.45342L58.2114 9.147ZM64.4434 10.8174V10.0165V10.8174ZM67.4082 12.5291L68.1018 12.1287V12.1287L67.4082 12.5291ZM71.9705 17.0908L72.371 16.3973L72.371 16.3973L71.9705 17.0908ZM48.5557 10.8174V10.0165V10.8174ZM45.5908 12.5291L44.8972 12.1287L45.5908 12.5291ZM41.0287 17.0908L40.6282 16.3973H40.6282L41.0287 17.0908ZM37.6469 26.2883L36.9533 25.8879L37.6469 26.2883ZM37.6469 29.7118L38.3405 29.3114V29.3114L37.6469 29.7118ZM41.0287 38.9083L40.6282 39.6019H40.6282L41.0287 38.9083ZM45.5908 43.471L46.2844 43.0706L45.5908 43.471ZM48.5557 45.1828V44.3819H48.5557L48.5557 45.1828ZM54.7878 46.8522L55.1883 46.1586H55.1883L54.7878 46.8522ZM58.2114 46.8522L57.8109 46.1586H57.8109L58.2114 46.8522ZM67.4082 43.471L66.7147 43.0706L67.4082 43.471ZM71.9705 38.9083L72.371 39.6019L72.371 39.6019L71.9705 38.9083ZM75.3521 29.7118L74.6585 29.3114V29.3114L75.3521 29.7118ZM75.3521 26.2883L76.0457 25.8879V25.8879L75.3521 26.2883ZM71.2922 18.2657L70.8918 18.9593V18.9593L71.2922 18.2657ZM74.1772 26.9666L73.4836 27.3671L74.1772 26.9666ZM74.1772 29.0335L73.4836 28.6331L73.4836 28.6331L74.1772 29.0335ZM46.7657 13.2075L46.0721 12.807H46.0721L46.7657 13.2075ZM41.707 18.2657L41.3066 17.5722L41.707 18.2657ZM38.8218 26.9666L38.1282 26.5662L38.8218 26.9666ZM38.8218 29.0335L38.1282 29.434L38.8218 29.0335ZM41.707 37.7334L41.3066 38.427L41.3066 38.427L41.707 37.7334ZM46.7657 42.7927L47.4593 42.3922H47.4592L46.7657 42.7927ZM48.5557 43.8261V43.0252H48.5557L48.5557 43.8261ZM55.4661 45.6773L55.8666 44.9837L55.4661 45.6773ZM57.5331 45.6773L57.1326 44.9837H57.1326L57.5331 45.6773ZM66.2334 42.7927L65.5398 42.3922L66.2334 42.7927ZM71.2922 37.7334L71.6926 38.427L71.2922 37.7334ZM53.7206 23.1858L53.3201 22.4922L53.7206 23.1858ZM59.2797 23.1858L58.8793 23.8793L59.2797 23.1858ZM53.7206 32.8145L53.3201 33.5081L53.7206 32.8145ZM59.2797 32.8145L59.6802 33.5081H59.6802L59.2797 32.8145ZM75.3692 12.6548L78.5039 14.4646L79.3048 13.0774L76.17 11.2676L75.3692 12.6548ZM76.4632 11.5608L75.2806 9.51247L73.8934 10.3134L75.076 12.3616L76.4632 11.5608ZM74.1866 10.6065L79.0952 13.4405L79.8961 12.0533L74.9875 9.21933L74.1866 10.6065ZM79.0952 13.4405C79.9066 13.909 80.4065 14.7748 80.4065 15.7118H82.0083C82.0083 14.2025 81.2031 12.8079 79.8961 12.0533L79.0952 13.4405ZM80.4065 15.7118V21.3797H82.0083V15.7118H80.4065ZM81.901 20.9793L80.7184 18.931L79.3312 19.7319L80.5138 21.7802L81.901 20.9793ZM79.2239 15.7118V19.3315H80.8257V15.7118H79.2239ZM78.5039 14.4646C78.9495 14.7219 79.2239 15.1973 79.2239 15.7118H80.8257C80.8257 14.625 80.2459 13.6208 79.3048 13.0774L78.5039 14.4646ZM79.2239 19.3315V21.6966H80.8257V19.3315H79.2239ZM80.7184 18.931L76.4632 11.5608L75.076 12.3616L79.3312 19.7319L80.7184 18.931ZM73.3209 11.4722L75.3692 12.6548L76.17 11.2676L74.1218 10.085L73.3209 11.4722ZM74.4149 10.3782L73.2323 8.3299L71.8452 9.13078L73.0277 11.1791L74.4149 10.3782ZM72.1383 9.42392L74.1866 10.6065L74.9875 9.21933L72.9392 8.03675L72.1383 9.42392ZM75.2806 9.51247L72.4467 4.60398L71.0595 5.40486L73.8934 10.3134L75.2806 9.51247ZM72.4467 4.60398C71.6921 3.29694 70.2975 2.49177 68.7882 2.49177V4.09353C69.7252 4.09353 70.591 4.59341 71.0595 5.40486L72.4467 4.60398ZM68.7882 2.49177H63.1204V4.09353H68.7882V2.49177ZM63.5208 2.59906L58.6122 -0.234915L57.8114 1.15225L62.7199 3.98623L63.5208 2.59906ZM58.6122 -0.234915C57.3052 -0.989538 55.6948 -0.989536 54.3878 -0.234914L55.1887 1.15225C56.0001 0.683758 56.9999 0.683757 57.8114 1.15225L58.6122 -0.234915ZM54.3878 -0.234914L49.4792 2.59906L50.2801 3.98623L55.1887 1.15225L54.3878 -0.234914ZM49.8796 2.49176H44.2118V4.09353H49.8796V2.49176ZM44.2118 2.49176C42.7025 2.49177 41.3079 3.29694 40.5533 4.60399L41.9405 5.40487C42.409 4.59341 43.2748 4.09353 44.2118 4.09353L44.2118 2.49176ZM40.5533 4.60399L37.7194 9.5125L39.1065 10.3134L41.9405 5.40487L40.5533 4.60399ZM38.0125 9.21936L33.104 12.0533L33.9049 13.4405L38.8134 10.6065L38.0125 9.21936ZM33.104 12.0533C31.7969 12.8079 30.9918 14.2025 30.9918 15.7118H32.5935C32.5935 14.7748 33.0934 13.909 33.9049 13.4405L33.104 12.0533ZM30.9918 15.7118V21.3797H32.5935V15.7118H30.9918ZM31.0991 20.9792L28.2651 25.8878L29.6523 26.6887L32.4862 21.7801L31.0991 20.9792ZM28.2651 25.8878C27.5105 27.1949 27.5105 28.8052 28.2651 30.1122L29.6523 29.3114C29.1838 28.4999 29.1838 27.5001 29.6523 26.6887L28.2651 25.8878ZM28.2651 30.1122L31.0991 35.0208L32.4862 34.2199L29.6523 29.3114L28.2651 30.1122ZM30.9918 34.6204V40.2882H32.5935V34.6204H30.9918ZM30.9918 40.2882C30.9918 41.7975 31.7969 43.1921 33.104 43.9467L33.9049 42.5595C33.0934 42.091 32.5935 41.2252 32.5935 40.2882H30.9918ZM33.104 43.9467L38.0125 46.7806L38.8134 45.3935L33.9049 42.5595L33.104 43.9467ZM37.7193 46.4875L40.5533 51.3961L41.9405 50.5952L39.1065 45.6866L37.7193 46.4875ZM40.5533 51.3961C41.3079 52.7031 42.7025 53.5083 44.2118 53.5083V51.9065C43.2748 51.9065 42.409 51.4067 41.9405 50.5952L40.5533 51.3961ZM44.2118 53.5083H49.8797V51.9065H44.2118V53.5083ZM49.4793 53.401L54.3878 56.2349L55.1887 54.8478L50.2802 52.0138L49.4793 53.401ZM54.3878 56.2349C55.6948 56.9895 57.3052 56.9895 58.6122 56.2349L57.8114 54.8478C56.9999 55.3162 56.0001 55.3162 55.1887 54.8478L54.3878 56.2349ZM58.6122 56.2349L63.5207 53.401L62.7199 52.0138L57.8114 54.8478L58.6122 56.2349ZM63.1203 53.5083H68.7882V51.9065H63.1203V53.5083ZM68.7882 53.5083C70.2975 53.5083 71.6921 52.7031 72.4467 51.3961L71.0595 50.5952C70.591 51.4067 69.7252 51.9065 68.7882 51.9065V53.5083ZM72.4467 51.3961L75.2807 46.4875L73.8935 45.6866L71.0595 50.5952L72.4467 51.3961ZM74.9875 46.7806L79.8961 43.9467L79.0952 42.5595L74.1866 45.3935L74.9875 46.7806ZM79.8961 43.9467C81.2031 43.1921 82.0083 41.7975 82.0083 40.2882H80.4065C80.4065 41.2252 79.9066 42.091 79.0952 42.5595L79.8961 43.9467ZM82.0083 40.2882V34.6203H80.4065V40.2882H82.0083ZM81.901 35.0208L84.7349 30.1122L83.3478 29.3114L80.5138 34.2199L81.901 35.0208ZM84.7349 30.1122C85.4895 28.8052 85.4895 27.1949 84.7349 25.8878L83.3478 26.6887C83.8162 27.5002 83.8162 28.4999 83.3478 29.3114L84.7349 30.1122ZM84.7349 25.8878L81.901 20.9793L80.5138 21.7802L83.3478 26.6887L84.7349 25.8878ZM80.4065 21.3797V23.7449H82.0083V21.3797H80.4065ZM81.901 23.3444L80.7184 21.2962L79.3312 22.097L80.5138 24.1453L81.901 23.3444ZM79.2239 21.6966V34.3035H80.8257V21.6966H79.2239ZM80.7184 21.2962L74.4149 10.3782L73.0277 11.1791L79.3312 22.097L80.7184 21.2962ZM62.4031 5.16881L73.3209 11.4722L74.1218 10.085L63.204 3.78164L62.4031 5.16881ZM62.8035 5.2761H65.1687V3.67434H62.8035V5.2761ZM64.7682 5.16881L72.1383 9.42392L72.9392 8.03675L65.5691 3.78164L64.7682 5.16881ZM73.2323 8.3299L71.4226 5.19527L70.0354 5.99615L71.8452 9.13078L73.2323 8.3299ZM71.4226 5.19527C70.8792 4.25412 69.875 3.67434 68.7882 3.67434V5.2761C69.3027 5.2761 69.7781 5.55059 70.0354 5.99615L71.4226 5.19527ZM68.7882 3.67434H65.1687V5.2761H68.7882V3.67434ZM65.5691 3.78164L63.5208 2.59906L62.7199 3.98623L64.7682 5.16881L65.5691 3.78164ZM63.1204 2.49177L60.7552 2.49177V4.09353H63.1204V2.49177ZM61.1557 2.59906L58.0209 0.789225L57.2201 2.17639L60.3548 3.98623L61.1557 2.59906ZM58.0209 0.789226C57.0798 0.245849 55.9202 0.245851 54.9791 0.789226L55.78 2.17639C56.2255 1.91914 56.7745 1.91914 57.2201 2.17639L58.0209 0.789226ZM54.9791 0.789227L51.8444 2.59906L52.6452 3.98623L55.78 2.17639L54.9791 0.789227ZM49.8796 4.09353L52.2448 4.09353V2.49177L49.8796 2.49176V4.09353ZM48.2318 5.1688L50.2801 3.98623L49.4792 2.59906L47.4309 3.78164L48.2318 5.1688ZM44.2118 5.2761H47.8314V3.67434H44.2118V5.2761ZM42.9646 5.99615C43.2219 5.55059 43.6973 5.2761 44.2118 5.2761L44.2118 3.67434C43.125 3.67434 42.1208 4.25412 41.5774 5.19527L42.9646 5.99615ZM41.1548 9.13081L42.9646 5.99615L41.5774 5.19527L39.7677 8.32993L41.1548 9.13081ZM40.0608 8.03678L38.0125 9.21936L38.8134 10.6065L40.8617 9.42395L40.0608 8.03678ZM37.7194 9.5125L36.5368 11.5608L37.924 12.3617L39.1065 10.3134L37.7194 9.5125ZM36.8299 11.2676L33.6953 13.0774L34.4961 14.4646L37.6308 12.6548L36.8299 11.2676ZM33.6953 13.0774C32.7541 13.6208 32.1743 14.625 32.1743 15.7118H33.7761C33.7761 15.1973 34.0506 14.7219 34.4961 14.4646L33.6953 13.0774ZM32.1743 15.7118V19.3314H33.7761V15.7118H32.1743ZM32.2816 18.931L31.0991 20.9792L32.4862 21.7801L33.6688 19.7318L32.2816 18.931ZM30.9918 21.3797V23.7448H32.5935V21.3797H30.9918ZM31.0991 23.3444L29.2892 26.4791L30.6764 27.28L32.4862 24.1453L31.0991 23.3444ZM29.2892 26.4791C28.7458 27.4202 28.7459 28.5798 29.2892 29.521L30.6764 28.7201C30.4191 28.2745 30.4191 27.7255 30.6764 27.28L29.2892 26.4791ZM29.2892 29.521L31.0991 32.6557L32.4862 31.8548L30.6764 28.7201L29.2892 29.521ZM30.9918 32.2552V34.6204H32.5935V32.2552H30.9918ZM31.0991 35.0208L32.2816 37.0691L33.6688 36.2682L32.4862 34.2199L31.0991 35.0208ZM32.1743 36.6687V40.2882H33.7761V36.6687H32.1743ZM32.1743 40.2882C32.1743 41.375 32.7541 42.3792 33.6953 42.9226L34.4961 41.5354C34.0506 41.2781 33.7761 40.8027 33.7761 40.2882H32.1743ZM33.6953 42.9226L36.8299 44.7323L37.6308 43.3452L34.4961 41.5354L33.6953 42.9226ZM36.5368 44.4392L37.7193 46.4875L39.1065 45.6866L37.9239 43.6383L36.5368 44.4392ZM38.0125 46.7806L40.0608 47.9632L40.8616 46.576L38.8134 45.3935L38.0125 46.7806ZM39.7676 47.6701L41.5774 50.8048L42.9646 50.0039L41.1548 46.8692L39.7676 47.6701ZM41.5774 50.8048C42.1208 51.7459 43.125 52.3257 44.2118 52.3257V50.724C43.6973 50.724 43.2219 50.4495 42.9646 50.0039L41.5774 50.8048ZM44.2118 52.3257H47.8315V50.724H44.2118V52.3257ZM47.431 52.2184L49.4793 53.401L50.2802 52.0138L48.2319 50.8313L47.431 52.2184ZM49.8797 53.5083H52.2449V51.9065H49.8797V53.5083ZM51.8444 53.401L54.9791 55.2108L55.78 53.8236L52.6453 52.0138L51.8444 53.401ZM54.9791 55.2108C55.9202 55.7542 57.0798 55.7542 58.0209 55.2108L57.2201 53.8236C56.7745 54.0809 56.2255 54.0809 55.78 53.8236L54.9791 55.2108ZM58.021 55.2108L61.1556 53.401L60.3547 52.0138L57.2201 53.8236L58.021 55.2108ZM60.7551 53.5083H63.1203V51.9065H60.7551V53.5083ZM63.5207 53.401L65.569 52.2184L64.7681 50.8312L62.7199 52.0138L63.5207 53.401ZM65.1686 52.3257H68.7882V50.724H65.1686V52.3257ZM68.7882 52.3257C69.875 52.3257 70.8792 51.7459 71.4226 50.8048L70.0354 50.0039C69.7781 50.4495 69.3027 50.724 68.7882 50.724L68.7882 52.3257ZM71.4226 50.8048L73.2324 47.6701L71.8452 46.8692L70.0354 50.0039L71.4226 50.8048ZM72.9392 47.9632L74.9875 46.7806L74.1866 45.3935L72.1384 46.5761L72.9392 47.9632ZM75.2807 46.4875L76.4632 44.4392L75.0761 43.6383L73.8935 45.6866L75.2807 46.4875ZM76.1701 44.7324L79.3048 42.9226L78.5039 41.5354L75.3692 43.3452L76.1701 44.7324ZM79.3048 42.9226C80.2459 42.3792 80.8257 41.375 80.8257 40.2882H79.2239C79.2239 40.8027 78.9495 41.2781 78.5039 41.5354L79.3048 42.9226ZM80.8257 40.2882V36.6686H79.2239V40.2882H80.8257ZM80.7184 37.069L81.901 35.0208L80.5138 34.2199L79.3312 36.2682L80.7184 37.069ZM82.0083 34.6203V32.2552H80.4065V34.6203H82.0083ZM81.901 32.6556L83.7108 29.521L82.3236 28.7201L80.5138 31.8547L81.901 32.6556ZM83.7108 29.521C84.2542 28.5798 84.2542 27.4203 83.7108 26.4791L82.3236 27.28C82.5809 27.7255 82.5809 28.2745 82.3236 28.7201L83.7108 29.521ZM83.7108 26.4791L81.901 23.3444L80.5138 24.1453L82.3236 27.28L83.7108 26.4791ZM80.4065 23.7449V32.2552H82.0083V23.7449H80.4065ZM80.5138 31.8547L79.3312 33.903L80.7184 34.7039L81.901 32.6556L80.5138 31.8547ZM79.3312 33.903L73.0278 44.8209L74.415 45.6218L80.7184 34.7039L79.3312 33.903ZM79.2239 34.3035V36.6686H80.8257V34.3035H79.2239ZM79.3312 36.2682L75.0761 43.6383L76.4632 44.4392L80.7184 37.069L79.3312 36.2682ZM75.3692 43.3452L73.3209 44.5278L74.1218 45.9149L76.1701 44.7324L75.3692 43.3452ZM73.3209 44.5278L62.403 50.8312L63.2039 52.2184L74.1218 45.9149L73.3209 44.5278ZM73.0278 44.8209L71.8452 46.8692L73.2324 47.6701L74.415 45.6218L73.0278 44.8209ZM72.1384 46.5761L64.7681 50.8312L65.569 52.2184L72.9392 47.9632L72.1384 46.5761ZM65.1686 50.724H62.8034V52.3257H65.1686V50.724ZM62.8034 50.724L50.1966 50.724V52.3257L62.8034 52.3257V50.724ZM62.403 50.8312L60.3547 52.0138L61.1556 53.401L63.2039 52.2184L62.403 50.8312ZM60.7551 51.9065H52.2449V53.5083H60.7551V51.9065ZM52.6453 52.0138L50.597 50.8313L49.7962 52.2184L51.8444 53.401L52.6453 52.0138ZM50.597 50.8313L39.6791 44.5277L38.8782 45.9149L49.7962 52.2184L50.597 50.8313ZM50.1966 50.724H47.8315V52.3257H50.1966V50.724ZM48.2319 50.8313L40.8616 46.576L40.0608 47.9632L47.431 52.2184L48.2319 50.8313ZM41.1548 46.8692L39.9722 44.8209L38.585 45.6218L39.7676 47.6701L41.1548 46.8692ZM39.9722 44.8209L33.6688 33.9031L32.2816 34.7039L38.585 45.6218L39.9722 44.8209ZM39.6791 44.5277L37.6308 43.3452L36.8299 44.7323L38.8782 45.9149L39.6791 44.5277ZM37.9239 43.6383L33.6688 36.2682L32.2816 37.0691L36.5368 44.4392L37.9239 43.6383ZM33.7761 36.6687V34.3035H32.1743V36.6687H33.7761ZM33.7761 34.3035V21.6965H32.1743V34.3035H33.7761ZM33.6688 33.9031L32.4862 31.8548L31.0991 32.6557L32.2816 34.7039L33.6688 33.9031ZM32.5935 32.2552V23.7448H30.9918V32.2552H32.5935ZM32.4862 24.1453L33.6688 22.097L32.2816 21.2961L31.0991 23.3444L32.4862 24.1453ZM33.6688 22.097L39.9722 11.1791L38.5851 10.3782L32.2816 21.2961L33.6688 22.097ZM33.7761 21.6965V19.3314H32.1743V21.6965H33.7761ZM33.6688 19.7318L37.924 12.3617L36.5368 11.5608L32.2816 18.931L33.6688 19.7318ZM37.6308 12.6548L39.6791 11.4722L38.8782 10.0851L36.8299 11.2676L37.6308 12.6548ZM50.1965 5.2761L62.8035 5.2761V3.67434L50.1965 3.67434V5.2761ZM60.3548 3.98623L62.4031 5.16881L63.204 3.78164L61.1557 2.59906L60.3548 3.98623ZM52.2448 4.09353H60.7552V2.49177H52.2448V4.09353ZM51.8444 2.59906L49.7961 3.78164L50.597 5.16881L52.6452 3.98623L51.8444 2.59906ZM39.6791 11.4722L50.597 5.1688L49.7961 3.78164L38.8782 10.0851L39.6791 11.4722ZM39.9722 11.1791L41.1548 9.13081L39.7677 8.32993L38.5851 10.3782L39.9722 11.1791ZM47.4309 3.78164L40.0608 8.03678L40.8617 9.42395L48.2318 5.1688L47.4309 3.78164ZM50.1965 3.67434H47.8314V5.2761H50.1965V3.67434ZM60.9345 18.5223L60.9308 18.5186L59.7982 19.6512L59.8019 19.6549L60.9345 18.5223ZM60.5755 18.315L57.8129 17.5748L57.3984 19.122L60.1609 19.8622L60.5755 18.315ZM57.4034 17.5735L57.3983 17.5748L57.813 19.122L57.8181 19.1206L57.4034 17.5735ZM60.9308 18.5186C60.0083 17.5961 58.6636 17.2358 57.4034 17.5734L57.818 19.1206C58.5255 18.9311 59.2803 19.1333 59.7982 19.6512L60.9308 18.5186ZM57.3984 17.5748L56.292 17.8712L56.7066 19.4184L57.8129 19.122L57.3984 17.5748ZM57.8129 17.5748L56.7066 17.2784L56.292 18.8256L57.3984 19.122L57.8129 17.5748ZM56.7066 18.8256L57.6698 18.5675L57.2552 17.0203L56.292 17.2784L56.7066 18.8256ZM57.6698 18.5675C58.5749 18.325 59.5406 18.5837 60.2031 19.2463L61.3357 18.1136C60.2685 17.0464 58.7131 16.6297 57.2552 17.0203L57.6698 18.5675ZM60.2031 19.2463L60.9082 19.9514L62.0408 18.8187L61.3357 18.1136L60.2031 19.2463ZM61.6818 18.6115L60.5755 18.315L60.1609 19.8622L61.2672 20.1586L61.6818 18.6115ZM61.7444 19.3322L60.9345 18.5223L59.8019 19.6549L60.6118 20.4648L61.7444 19.3322ZM61.3854 19.1249L56.7066 17.8712L56.292 19.4184L60.9708 20.6721L61.3854 19.1249ZM56.292 17.8712L51.6158 19.1242L52.0303 20.6714L56.7066 19.4184L56.292 17.8712ZM56.7066 17.8712L55.6003 17.5748L55.1857 19.122L56.292 19.4184L56.7066 17.8712ZM55.6003 19.122L56.7066 18.8256L56.292 17.2784L55.1857 17.5748L55.6003 19.122ZM56.7066 17.2784L55.7449 17.0207L55.3303 18.5679L56.292 18.8256L56.7066 17.2784ZM55.7449 17.0207C54.287 16.63 52.7316 17.0468 51.6644 18.114L52.797 19.2466C53.4595 18.5841 54.4252 18.3253 55.3303 18.5679L55.7449 17.0207ZM51.6644 18.114L50.9603 18.8181L52.0929 19.9507L52.797 19.2466L51.6644 18.114ZM51.3193 18.6108L50.3564 18.8688L50.7709 20.416L51.7339 20.158L51.3193 18.6108ZM50.3564 18.8688C48.8985 19.2594 47.7598 20.3981 47.3692 21.856L48.9164 22.2705C49.1589 21.3655 49.8659 20.6585 50.7709 20.416L50.3564 18.8688ZM47.3692 21.856L47.1112 22.8189L48.6584 23.2335L48.9164 22.2705L47.3692 21.856ZM47.3185 22.4599L46.614 23.1644L47.7467 24.297L48.4511 23.5925L47.3185 22.4599ZM46.614 23.1644C45.5468 24.2316 45.1301 25.787 45.5207 27.2448L47.0679 26.8303C46.8253 25.9252 47.0841 24.9595 47.7467 24.297L46.614 23.1644ZM45.5207 27.2448L45.7785 28.2071L47.3257 27.7926L47.0679 26.8303L45.5207 27.2448ZM45.7785 27.7926L45.5207 28.7548L47.0679 29.1694L47.3257 28.2071L45.7785 27.7926ZM45.5207 28.7548C45.1301 30.2126 45.5468 31.7681 46.614 32.8353L47.7467 31.7027C47.0841 31.0402 46.8254 30.0745 47.0679 29.1694L45.5207 28.7548ZM46.614 32.8353L47.3185 33.5398L48.4511 32.4071L47.7467 31.7027L46.614 32.8353ZM47.1112 33.1807L47.3692 34.1437L48.9164 33.7292L48.6584 32.7662L47.1112 33.1807ZM47.3692 34.1437C47.7598 35.6015 48.8985 36.7402 50.3564 37.1308L50.7709 35.5837C49.8659 35.3412 49.1589 34.6342 48.9164 33.7292L47.3692 34.1437ZM50.3564 37.1308L51.3193 37.3889L51.7339 35.8417L50.7709 35.5837L50.3564 37.1308ZM50.9603 37.1816L51.6644 37.8856L52.797 36.753L52.0929 36.049L50.9603 37.1816ZM51.6644 37.8856C52.7316 38.9528 54.287 39.3696 55.7449 38.979L55.3303 37.4318C54.4252 37.6743 53.4595 37.4156 52.797 36.753L51.6644 37.8856ZM55.7449 38.979L56.7066 38.7213L56.292 37.1741L55.3303 37.4318L55.7449 38.979ZM56.292 38.7213L57.2552 38.9794L57.6698 37.4322L56.7066 37.1741L56.292 38.7213ZM57.2552 38.9794C58.713 39.37 60.2685 38.9532 61.3357 37.886L60.2031 36.7534C59.5405 37.416 58.5749 37.6747 57.6698 37.4322L57.2552 38.9794ZM61.3357 37.886L62.0408 37.1809L60.9082 36.0483L60.2031 36.7534L61.3357 37.886ZM61.6818 37.3882L62.6437 37.1305L62.2292 35.5833L61.2672 35.841L61.6818 37.3882ZM62.6437 37.1305C64.1016 36.7398 65.2402 35.6012 65.6309 34.1433L64.0837 33.7288C63.8412 34.6338 63.1342 35.3408 62.2292 35.5833L62.6437 37.1305ZM65.6309 34.1433L65.8886 33.1814L64.3414 32.7668L64.0837 33.7288L65.6309 34.1433ZM65.6813 33.5404L66.386 32.8357L65.2534 31.7031L64.5487 32.4078L65.6813 33.5404ZM66.386 32.8357C67.4532 31.7685 67.87 30.213 67.4794 28.7552L65.9322 29.1698C66.1747 30.0748 65.916 31.0405 65.2534 31.7031L66.386 32.8357ZM67.4794 28.7552L67.2215 27.7926L65.6743 28.2071L65.9322 29.1698L67.4794 28.7552ZM67.2215 28.2071L67.4794 27.2445L65.9322 26.8299L65.6743 27.7926L67.2215 28.2071ZM67.4794 27.2445C67.87 25.7866 67.4532 24.2312 66.386 23.164L65.2534 24.2966C65.916 24.9591 66.1747 25.9248 65.9322 26.8299L67.4794 27.2445ZM66.386 23.164L65.6813 22.4593L64.5487 23.5919L65.2534 24.2966L66.386 23.164ZM65.8886 22.8183L65.6309 21.8563L64.0837 22.2709L64.3414 23.2328L65.8886 22.8183ZM65.6309 21.8563C65.2402 20.3985 64.1016 19.2598 62.6437 18.8692L62.2292 20.4164C63.1342 20.6589 63.8412 21.3658 64.0837 22.2709L65.6309 21.8563ZM62.6437 18.8692L61.6818 18.6115L61.2672 20.1586L62.2292 20.4164L62.6437 18.8692ZM60.9082 19.9514L61.7181 20.7612L62.8507 19.6286L62.0408 18.8187L60.9082 19.9514ZM62.4917 19.4213L61.3854 19.1249L60.9708 20.6721L62.0771 20.9685L62.4917 19.4213ZM65.1679 22.7557L61.7444 19.3322L60.6118 20.4648L64.0353 23.8883L65.1679 22.7557ZM66.6286 27.7926L65.3752 23.1147L63.828 23.5293L65.0814 28.2071L66.6286 27.7926ZM65.3752 32.885L66.6286 28.2071L65.0814 27.7926L63.828 32.4704L65.3752 32.885ZM61.7444 36.6675L65.1679 33.244L64.0353 32.1114L60.6118 35.5349L61.7444 36.6675ZM56.7066 38.1284L61.3854 36.8748L60.9708 35.3276L56.292 36.5813L56.7066 38.1284ZM51.6158 36.8754L56.292 38.1284L56.7066 36.5813L52.0303 35.3283L51.6158 36.8754ZM47.8319 33.2433L51.2568 36.6682L52.3894 35.5355L48.9645 32.1107L47.8319 33.2433ZM46.3714 28.2071L47.6246 32.8843L49.1718 32.4697L47.9186 27.7926L46.3714 28.2071ZM47.6246 23.1154L46.3714 27.7926L47.9186 28.2071L49.1718 23.5299L47.6246 23.1154ZM48.9645 23.889L52.3894 20.4641L51.2568 19.3315L47.8319 22.7564L48.9645 23.889ZM51.6158 19.1242L50.5095 19.4207L50.924 20.9679L52.0304 20.6714L51.6158 19.1242ZM52.3894 20.4641L53.1992 19.6543L52.0666 18.5216L51.2568 19.3315L52.3894 20.4641ZM52.8402 19.8615L55.6003 19.122L55.1857 17.5748L52.4257 18.3144L52.8402 19.8615ZM55.6003 17.5748L55.5967 17.5738L55.182 19.121L55.1857 19.122L55.6003 17.5748ZM55.5966 17.5738C54.3364 17.2361 52.9918 17.5964 52.0693 18.519L53.2019 19.6516C53.7198 19.1337 54.4746 18.9314 55.1821 19.121L55.5966 17.5738ZM52.0693 18.519L52.0666 18.5216L53.1992 19.6543L53.2019 19.6516L52.0693 18.519ZM52.4257 18.3144L51.3193 18.6108L51.7339 20.158L52.8402 19.8615L52.4257 18.3144ZM50.9603 18.8181L50.1504 19.628L51.2831 20.7606L52.0929 19.9507L50.9603 18.8181ZM47.9211 22.0091L47.6246 23.1154L49.1718 23.5299L49.4683 22.4236L47.9211 22.0091ZM48.1547 24.6988L48.9645 23.889L47.8319 22.7564L47.022 23.5662L48.1547 24.6988ZM47.1112 22.8189L46.8148 23.9253L48.3619 24.3398L48.6584 23.2335L47.1112 22.8189ZM48.1284 21.65L47.3185 22.4599L48.4511 23.5925L49.261 22.7827L48.1284 21.65ZM46.0738 27.0967L46.075 27.1009L47.6221 26.6862L47.621 26.682L46.0738 27.0967ZM47.019 23.5693C46.0965 24.4918 45.7362 25.8364 46.0738 27.0966L47.621 26.6821C47.4315 25.9746 47.6337 25.2198 48.1516 24.7019L47.019 23.5693ZM47.022 23.5662L47.019 23.5693L48.1516 24.7019L48.1547 24.6988L47.022 23.5662ZM47.6221 27.1008L48.3619 24.3398L46.8148 23.9253L46.075 26.6862L47.6221 27.1008ZM46.075 26.6862L45.7785 27.7926L47.3257 28.2071L47.6221 27.1008L46.075 26.6862ZM45.7785 28.2071L46.075 29.3134L47.6221 28.8989L47.3257 27.7926L45.7785 28.2071ZM46.0749 28.899L46.0738 28.9032L47.621 29.3175L47.6222 29.3133L46.0749 28.899ZM46.0738 28.903C45.7362 30.1632 46.0965 31.5079 47.019 32.4304L48.1516 31.2978C47.6337 30.7799 47.4315 30.0251 47.621 29.3176L46.0738 28.903ZM47.019 32.4304L47.022 32.4334L48.1547 31.3008L48.1516 31.2978L47.019 32.4304ZM46.8148 32.0744L47.1112 33.1807L48.6584 32.7662L48.3619 31.6599L46.8148 32.0744ZM47.3185 33.5398L48.1283 34.3496L49.261 33.217L48.4511 32.4071L47.3185 33.5398ZM47.9211 33.9907L47.9224 33.9956L49.4695 33.5808L49.4682 33.5759L47.9211 33.9907ZM47.9224 33.9955C48.26 35.2557 49.2444 36.24 50.5046 36.5777L50.9191 35.0305C50.2117 34.841 49.6591 34.2884 49.4696 33.5809L47.9224 33.9955ZM50.5048 36.5778L50.5097 36.5791L50.9238 35.0318L50.9189 35.0304L50.5048 36.5778ZM50.1504 36.3717L50.9603 37.1816L52.0929 36.049L51.2831 35.2391L50.1504 36.3717ZM51.3193 37.3889L52.4257 37.6853L52.8402 36.1381L51.7339 35.8417L51.3193 37.3889ZM52.0668 37.4782L52.0695 37.4809L53.2017 36.3479L53.199 36.3452L52.0668 37.4782ZM52.0693 37.4807C52.9918 38.4032 54.3364 38.7635 55.5966 38.4259L55.1821 36.8787C54.4746 37.0682 53.7198 36.866 53.2019 36.3481L52.0693 37.4807ZM55.5967 38.4258L55.6003 38.4249L55.1857 36.8777L55.182 36.8787L55.5967 38.4258ZM55.1857 38.4249L56.292 38.7213L56.7066 37.1741L55.6003 36.8777L55.1857 38.4249ZM56.7066 38.7213L57.8129 38.4249L57.3983 36.8777L56.292 37.1741L56.7066 38.7213ZM57.3983 38.4249L57.4034 38.4262L57.8181 36.8791L57.813 36.8777L57.3983 38.4249ZM57.4034 38.4262C58.6636 38.7639 60.0083 38.4036 60.9308 37.4811L59.7982 36.3485C59.2803 36.8664 58.5255 37.0686 57.818 36.8791L57.4034 38.4262ZM60.9309 37.481L60.9347 37.4772L59.8018 36.3449L59.798 36.3486L60.9309 37.481ZM60.5755 37.6846L61.6818 37.3882L61.2672 35.841L60.1609 36.1375L60.5755 37.6846ZM62.0408 37.1809L62.8507 36.3711L61.7181 35.2384L60.9082 36.0483L62.0408 37.1809ZM62.4919 36.5783L62.4958 36.5772L62.0807 35.0302L62.0768 35.0312L62.4919 36.5783ZM62.4955 36.5773C63.7557 36.2396 64.74 35.2553 65.0777 33.9951L63.5305 33.5806C63.341 34.288 62.7884 34.8406 62.081 35.0301L62.4955 36.5773ZM65.0776 33.9954L65.0787 33.9915L63.5316 33.5764L63.5306 33.5803L65.0776 33.9954ZM64.8715 34.3503L65.6813 33.5404L64.5487 32.4078L63.7388 33.2177L64.8715 34.3503ZM65.8886 33.1814L66.1851 32.0751L64.6379 31.6605L64.3414 32.7668L65.8886 33.1814ZM65.9779 32.434L65.9813 32.4306L64.8483 31.2983L64.845 31.3017L65.9779 32.434ZM65.9811 32.4308C66.9036 31.5082 67.2639 30.1636 66.9263 28.9034L65.3791 29.318C65.5686 30.0254 65.3664 30.7803 64.8485 31.2982L65.9811 32.4308ZM66.9262 28.9034L66.925 28.8988L65.3779 29.3135L65.3791 29.3181L66.9262 28.9034ZM66.925 29.3134L67.2215 28.2071L65.6743 27.7926L65.3779 28.8989L66.925 29.3134ZM67.2215 27.7926L66.925 26.6863L65.3778 27.1008L65.6743 28.2071L67.2215 27.7926ZM66.9251 27.1007L66.9263 27.0961L65.379 26.6818L65.3778 26.6864L66.9251 27.1007ZM66.9263 27.0962C67.2639 25.8361 66.9036 24.4914 65.9811 23.5689L64.8485 24.7015C65.3664 25.2194 65.5686 25.9742 65.3791 26.6817L66.9263 27.0962ZM65.9811 23.5689L65.9778 23.5656L64.8451 24.6982L64.8485 24.7015L65.9811 23.5689ZM66.1851 23.9246L65.8886 22.8183L64.3414 23.2328L64.6379 24.3392L66.1851 23.9246ZM65.6813 22.4593L64.8715 21.6494L63.7388 22.782L64.5487 23.5919L65.6813 22.4593ZM65.0788 22.0085L65.0777 22.0046L63.5305 22.4191L63.5315 22.4229L65.0788 22.0085ZM65.0777 22.0046C64.74 20.7444 63.7557 19.76 62.4955 19.4224L62.081 20.9696C62.7884 21.1591 63.341 21.7117 63.5305 22.4191L65.0777 22.0046ZM62.4955 19.4223L62.4916 19.4213L62.0772 20.9685L62.081 20.9696L62.4955 19.4223ZM61.7181 20.7612L63.7388 22.782L64.8715 21.6494L62.8507 19.6286L61.7181 20.7612ZM63.5316 22.423L63.828 23.5293L65.3752 23.1147L65.0787 22.0084L63.5316 22.423ZM64.0353 23.8883L64.8451 24.6982L65.9778 23.5656L65.1679 22.7557L64.0353 23.8883ZM64.6379 24.3392L65.3779 27.1008L66.925 26.6863L66.1851 23.9246L64.6379 24.3392ZM65.3779 26.6863L65.0814 27.7926L66.6286 28.2071L66.925 27.1008L65.3779 26.6863ZM65.0814 28.2071L65.3779 29.3134L66.925 28.8989L66.6286 27.7926L65.0814 28.2071ZM65.3779 28.8989L64.6379 31.6605L66.1851 32.0751L66.925 29.3134L65.3779 28.8989ZM64.8452 31.3015L64.0353 32.1114L65.1679 33.244L65.9778 32.4341L64.8452 31.3015ZM63.828 32.4704L63.5316 33.5767L65.0787 33.9913L65.3752 32.885L63.828 32.4704ZM63.7388 33.2177L61.7181 35.2384L62.8507 36.3711L64.8715 34.3503L63.7388 33.2177ZM62.0771 35.0312L60.9708 35.3276L61.3854 36.8748L62.4917 36.5783L62.0771 35.0312ZM60.6118 35.5349L59.8019 36.3447L60.9345 37.4774L61.7444 36.6675L60.6118 35.5349ZM60.1609 36.1375L57.3983 36.8777L57.8129 38.4249L60.5755 37.6846L60.1609 36.1375ZM57.8129 36.8777L56.7066 36.5813L56.292 38.1284L57.3983 38.4249L57.8129 36.8777ZM56.292 36.5813L55.1857 36.8777L55.6003 38.4249L56.7066 38.1284L56.292 36.5813ZM55.6003 36.8777L52.8402 36.1381L52.4257 37.6853L55.1857 38.4249L55.6003 36.8777ZM53.1992 36.3454L52.3894 35.5355L51.2568 36.6682L52.0666 37.478L53.1992 36.3454ZM52.0304 35.3283L50.924 35.0318L50.5095 36.579L51.6158 36.8754L52.0304 35.3283ZM51.2831 35.2391L49.261 33.217L48.1284 34.3496L50.1504 36.3717L51.2831 35.2391ZM49.4683 33.576L49.1718 32.4697L47.6246 32.8843L47.9211 33.9906L49.4683 33.576ZM48.9645 32.1107L48.1547 31.3008L47.022 32.4334L47.8319 33.2433L48.9645 32.1107ZM48.3619 31.6599L47.6221 28.8989L46.075 29.3134L46.8148 32.0744L48.3619 31.6599ZM47.6221 29.3134L47.9186 28.2071L46.3714 27.7926L46.075 28.8989L47.6221 29.3134ZM47.9186 27.7926L47.6221 26.6862L46.075 27.1008L46.3714 28.2071L47.9186 27.7926ZM50.1504 19.628L48.1284 21.65L49.261 22.7827L51.2831 20.7606L50.1504 19.628ZM50.5096 19.4206L50.5047 19.422L50.919 20.9692L50.9239 20.9679L50.5096 19.4206ZM50.5046 19.422C49.2444 19.7597 48.26 20.744 47.9224 22.0042L49.4696 22.4187C49.6591 21.7113 50.2117 21.1587 50.9191 20.9692L50.5046 19.422ZM47.9224 22.0042L47.9211 22.0091L49.4683 22.4236L49.4696 22.4187L47.9224 22.0042ZM67.4215 13.6636L66.9269 12.807L65.5398 13.6079L66.0343 14.4645L67.4215 13.6636ZM63.0539 12.8676L66.3274 14.7576L67.1283 13.3704L63.8547 11.4804L63.0539 12.8676ZM64.4434 11.3731H63.4543V12.9749H64.4434V11.3731ZM66.9269 12.807C66.4147 11.9197 65.4679 11.3731 64.4434 11.3731V12.9749C64.8957 12.9749 65.3136 13.2162 65.5398 13.6079L66.9269 12.807ZM57.9908 11.511L60.3406 12.8676L61.1415 11.4804L58.7917 10.1238L57.9908 11.511ZM61.1045 10.0165H58.3913V11.6182H61.1045V10.0165ZM63.8547 11.4804L61.505 10.1238L60.7041 11.511L63.0539 12.8676L63.8547 11.4804ZM60.741 12.9749H63.4543V11.3731H60.741V12.9749ZM69.4781 14.7271L67.1283 13.3704L66.3274 14.7576L68.6772 16.1142L69.4781 14.7271ZM66.0343 14.4645L67.3909 16.8142L68.7781 16.0133L67.4215 13.6636L66.0343 14.4645ZM68.485 15.7202L61.1415 11.4804L60.3406 12.8676L67.6841 17.1074L68.485 15.7202ZM60.741 11.3731L52.2582 11.3731V12.9749L60.741 12.9749V11.3731ZM52.6586 12.8676L55.0084 11.511L54.2075 10.1238L51.8577 11.4804L52.6586 12.8676ZM54.6079 11.6182L58.3913 11.6182V10.0165L54.6079 10.0165V11.6182ZM58.7917 10.1238L57.9335 9.6283L57.1326 11.0155L57.9908 11.511L58.7917 10.1238ZM57.9335 9.6283C57.0462 9.11602 55.953 9.11602 55.0657 9.6283L55.8666 11.0155C56.2583 10.7893 56.7409 10.7893 57.1326 11.0155L57.9335 9.6283ZM55.0657 9.6283L54.2075 10.1238L55.0084 11.511L55.8666 11.0155L55.0657 9.6283ZM54.6079 10.0165H51.8947V11.6182H54.6079V10.0165ZM52.2951 11.511L55.1883 9.84059L54.3874 8.45342L51.4942 10.1238L52.2951 11.511ZM55.1883 9.84059C55.9997 9.37209 56.9995 9.37209 57.8109 9.84059L58.6118 8.45342C57.3048 7.6988 55.6944 7.6988 54.3874 8.45342L55.1883 9.84059ZM57.8109 9.84059L60.7041 11.511L61.505 10.1238L58.6118 8.45342L57.8109 9.84059ZM61.1045 11.6182H64.4434V10.0165H61.1045V11.6182ZM64.4434 11.6182C65.3804 11.6182 66.2462 12.1181 66.7147 12.9296L68.1018 12.1287C67.3472 10.8217 65.9526 10.0165 64.4434 10.0165V11.6182ZM66.7147 12.9296L68.3841 15.8211L69.7712 15.0202L68.1018 12.1287L66.7147 12.9296ZM72.8814 20.0557V23.3961H74.4832V20.0557H72.8814ZM71.5701 17.7844C72.3815 18.2529 72.8814 19.1187 72.8814 20.0557H74.4832C74.4832 18.5465 73.678 17.1519 72.371 16.3973L71.5701 17.7844ZM68.6772 16.1142L71.5701 17.7844L72.371 16.3973L69.4781 14.7271L68.6772 16.1142ZM71.1279 17.37L69.7712 15.0202L68.3841 15.8211L69.7407 18.1709L71.1279 17.37ZM67.6841 17.1074L70.0339 18.464L70.8347 17.0768L68.485 15.7202L67.6841 17.1074ZM73.0192 23.3592L68.7781 16.0133L67.3909 16.8142L71.6321 24.1601L73.0192 23.3592ZM73.1265 32.2405V23.7596H71.5248V32.2405H73.1265ZM68.779 39.9853L73.0192 32.6409L71.6321 31.8401L67.3918 39.1845L68.779 39.9853ZM61.1398 44.5197L68.4858 40.2785L67.6849 38.8913L60.3389 43.1325L61.1398 44.5197ZM52.2599 44.627L60.7393 44.627V43.0253L52.2599 43.0252V44.627ZM44.5131 40.2783L51.8594 44.5197L52.6603 43.1325L45.314 38.8912L44.5131 40.2783ZM39.98 32.6412L44.22 39.9852L45.6072 39.1843L41.3671 31.8404L39.98 32.6412ZM39.8727 23.7593V32.2408H41.4744V23.7593H39.8727ZM44.2208 16.0135L39.98 23.3589L41.3671 24.1598L45.608 16.8144L44.2208 16.0135ZM51.8577 11.4804L44.514 15.7203L45.3149 17.1075L52.6586 12.8676L51.8577 11.4804ZM49.5449 12.9749H52.2582V11.3731H49.5449V12.9749ZM51.4942 10.1238L49.1444 11.4804L49.9453 12.8676L52.2951 11.511L51.4942 10.1238ZM48.5557 11.6182H51.8947V10.0165H48.5557V11.6182ZM46.2844 12.9296C46.7529 12.1181 47.6187 11.6182 48.5557 11.6182V10.0165C47.0464 10.0165 45.6518 10.8217 44.8972 12.1287L46.2844 12.9296ZM44.6149 15.8212L46.2844 12.9296L44.8972 12.1287L43.2277 15.0204L44.6149 15.8212ZM41.4291 17.7844L44.3217 16.1144L43.5208 14.7272L40.6282 16.3973L41.4291 17.7844ZM40.1178 20.0557C40.1178 19.1187 40.6177 18.2529 41.4291 17.7844L40.6282 16.3973C39.3212 17.1519 38.516 18.5465 38.516 20.0557H40.1178ZM40.1178 23.3958V20.0557H38.516V23.3958H40.1178ZM38.3405 26.6887L40.0105 23.7963L38.6233 22.9954L36.9533 25.8879L38.3405 26.6887ZM38.3405 29.3114C37.872 28.5 37.872 27.5002 38.3405 26.6887L36.9533 25.8879C36.1987 27.1949 36.1987 28.8052 36.9534 30.1123L38.3405 29.3114ZM40.0105 32.2039L38.3405 29.3114L36.9533 30.1123L38.6233 33.0047L40.0105 32.2039ZM40.1178 35.9434V32.6043H38.516V35.9434H40.1178ZM41.4291 38.2147C40.6177 37.7462 40.1178 36.8804 40.1178 35.9434H38.516C38.516 37.4527 39.3212 38.8473 40.6282 39.6019L41.4291 38.2147ZM44.3209 39.8843L41.4291 38.2147L40.6282 39.6019L43.52 41.2715L44.3209 39.8843ZM46.2844 43.0706L44.614 40.1774L43.2269 40.9783L44.8972 43.8714L46.2844 43.0706ZM48.5557 44.3819C47.6187 44.3819 46.7529 43.882 46.2844 43.0706L44.8972 43.8714C45.6518 45.1785 47.0464 45.9837 48.5557 45.9837L48.5557 44.3819ZM51.8963 44.3819H48.5557V45.9837H51.8963V44.3819ZM55.1883 46.1586L52.2968 44.4892L51.4959 45.8764L54.3874 47.5457L55.1883 46.1586ZM57.8109 46.1586C56.9995 46.6271 55.9997 46.6271 55.1883 46.1586L54.3874 47.5457C55.6944 48.3004 57.3048 48.3004 58.6118 47.5457L57.8109 46.1586ZM60.7024 44.4892L57.8109 46.1586L58.6118 47.5457L61.5033 45.8764L60.7024 44.4892ZM64.4434 44.3819H61.1028V45.9837H64.4434V44.3819ZM66.7147 43.0706C66.2462 43.882 65.3804 44.3819 64.4434 44.3819V45.9837C65.9526 45.9837 67.3472 45.1785 68.1018 43.8714L66.7147 43.0706ZM68.3849 40.1776L66.7147 43.0706L68.1018 43.8714L69.7721 40.9785L68.3849 40.1776ZM71.5701 38.2147L68.6781 39.8844L69.4789 41.2716L72.371 39.6019L71.5701 38.2147ZM72.8814 35.9434C72.8814 36.8804 72.3815 37.7462 71.5701 38.2147L72.371 39.6019C73.678 38.8473 74.4832 37.4527 74.4832 35.9434H72.8814ZM72.8814 32.604V35.9434H74.4832V32.604H72.8814ZM74.6585 29.3114L72.9887 32.2036L74.3759 33.0045L76.0457 30.1123L74.6585 29.3114ZM74.6585 26.6887C75.127 27.5002 75.127 28.5 74.6585 29.3114L76.0457 30.1123C76.8003 28.8052 76.8003 27.1949 76.0457 25.8879L74.6585 26.6887ZM72.9887 23.7966L74.6585 26.6887L76.0457 25.8879L74.3759 22.9957L72.9887 23.7966ZM74.4832 26.1094V23.3961H72.8814V26.1094H74.4832ZM74.3759 22.9957L73.0192 20.6459L71.6321 21.4468L72.9887 23.7966L74.3759 22.9957ZM73.1265 21.0464V20.0557H71.5248V21.0464H73.1265ZM73.1265 20.0557C73.1265 19.0312 72.5799 18.0844 71.6926 17.5722L70.8918 18.9593C71.2835 19.1855 71.5248 19.6034 71.5248 20.0557H73.1265ZM71.6926 17.5722L70.8347 17.0768L70.0339 18.464L70.8918 18.9593L71.6926 17.5722ZM69.7407 18.1709L71.6321 21.4468L73.0192 20.6459L71.1279 17.37L69.7407 18.1709ZM71.5248 21.0464V23.7596H73.1265V21.0464H71.5248ZM71.6321 24.1601L72.9887 26.5098L74.3759 25.709L73.0192 23.3592L71.6321 24.1601ZM72.8814 26.1094V29.8907H74.4832V26.1094H72.8814ZM74.8708 26.5662L74.3759 25.709L72.9887 26.5098L73.4836 27.3671L74.8708 26.5662ZM74.8708 29.434C75.3831 28.5467 75.3831 27.4535 74.8708 26.5662L73.4836 27.3671C73.7098 27.7588 73.7098 28.2414 73.4836 28.6331L74.8708 29.434ZM74.3759 30.2912L74.8708 29.434L73.4836 28.6331L72.9887 29.4903L74.3759 30.2912ZM72.9887 29.4903L71.6321 31.8401L73.0192 32.6409L74.3759 30.2912L72.9887 29.4903ZM71.5248 32.2405V34.9538H73.1265V32.2405H71.5248ZM71.6321 34.5533L69.7416 37.8278L71.1287 38.6287L73.0192 35.3542L71.6321 34.5533ZM70.0347 37.5347L67.6849 38.8913L68.4858 40.2785L70.8356 38.9218L70.0347 37.5347ZM67.3918 39.1845L66.0351 41.5342L67.4223 42.3351L68.779 39.9853L67.3918 39.1845ZM66.3283 41.2411L63.0522 43.1325L63.8531 44.5197L67.1292 42.6283L66.3283 41.2411ZM63.4526 43.0253H60.7393V44.627H63.4526V43.0253ZM60.3389 43.1325L57.9891 44.4892L58.79 45.8764L61.1398 44.5197L60.3389 43.1325ZM58.3896 44.3819L54.6096 44.3819L54.6096 45.9837L58.3896 45.9837L58.3896 44.3819ZM55.0101 44.4892L52.6603 43.1325L51.8594 44.5197L54.2092 45.8764L55.0101 44.4892ZM52.2599 43.0252H49.5466V44.627H52.2599V43.0252ZM49.947 43.1325L46.6707 41.2409L45.8698 42.6281L49.1461 44.5197L49.947 43.1325ZM46.9638 41.5341L45.6072 39.1843L44.22 39.9852L45.5766 42.335L46.9638 41.5341ZM45.314 38.8912L42.9642 37.5345L42.1634 38.9217L44.5131 40.2783L45.314 38.8912ZM43.2574 37.8277L41.3671 34.5536L39.98 35.3545L41.8702 38.6286L43.2574 37.8277ZM41.4744 34.9541V32.2408H39.8727V34.9541H41.4744ZM41.3671 31.8404L40.0105 29.4906L38.6233 30.2915L39.98 32.6412L41.3671 31.8404ZM40.1178 29.891V26.1091H38.516V29.891H40.1178ZM40.0105 26.5096L41.3671 24.1598L39.98 23.3589L38.6233 25.7087L40.0105 26.5096ZM41.4744 23.7593V21.0461H39.8727V23.7593H41.4744ZM41.3671 21.4465L43.2582 18.171L41.8711 17.3701L39.98 20.6456L41.3671 21.4465ZM42.9651 18.4642L45.3149 17.1075L44.514 15.7203L42.1642 17.077L42.9651 18.4642ZM45.608 16.8144L46.9646 14.4646L45.5775 13.6637L44.2208 16.0135L45.608 16.8144ZM46.6715 14.7577L49.9453 12.8676L49.1444 11.4804L45.8706 13.3706L46.6715 14.7577ZM49.5449 11.3731H48.5557V12.9749H49.5449V11.3731ZM48.5557 11.3731C47.5311 11.3731 46.5844 11.9197 46.0721 12.807L47.4592 13.6079C47.6854 13.2162 48.1034 12.9749 48.5557 12.9749V11.3731ZM46.0721 12.807L45.5775 13.6637L46.9646 14.4646L47.4592 13.6079L46.0721 12.807ZM45.8706 13.3706L43.5208 14.7272L44.3217 16.1144L46.6715 14.7577L45.8706 13.3706ZM43.2277 15.0204L41.8711 17.3701L43.2582 18.171L44.6149 15.8212L43.2277 15.0204ZM42.1642 17.077L41.3066 17.5722L42.1074 18.9593L42.9651 18.4642L42.1642 17.077ZM41.3066 17.5722C40.4193 18.0844 39.8727 19.0312 39.8727 20.0557H41.4744C41.4744 19.6034 41.7157 19.1855 42.1074 18.9593L41.3066 17.5722ZM39.8727 20.0557V21.0461H41.4744V20.0557H39.8727ZM39.98 20.6456L38.6233 22.9954L40.0105 23.7963L41.3671 21.4465L39.98 20.6456ZM38.516 23.3958V26.1091H40.1178V23.3958H38.516ZM38.6233 25.7087L38.1282 26.5662L39.5154 27.3671L40.0105 26.5096L38.6233 25.7087ZM38.1282 26.5662C37.616 27.4535 37.616 28.5467 38.1282 29.434L39.5154 28.6331C39.2892 28.2414 39.2892 27.7588 39.5154 27.3671L38.1282 26.5662ZM38.1282 29.434L38.6233 30.2915L40.0105 29.4906L39.5154 28.6331L38.1282 29.434ZM38.516 29.891V32.6043H40.1178V29.891H38.516ZM38.6233 33.0047L39.98 35.3545L41.3671 34.5536L40.0105 32.2039L38.6233 33.0047ZM39.8727 34.9541V35.9434H41.4744V34.9541H39.8727ZM39.8727 35.9434C39.8727 36.968 40.4193 37.9147 41.3066 38.427L42.1074 37.0398C41.7157 36.8137 41.4744 36.3957 41.4744 35.9434H39.8727ZM41.3066 38.427L42.1634 38.9217L42.9642 37.5345L42.1074 37.0398L41.3066 38.427ZM41.8702 38.6286L43.2269 40.9783L44.614 40.1774L43.2574 37.8277L41.8702 38.6286ZM43.52 41.2715L45.8698 42.6281L46.6707 41.2409L44.3209 39.8843L43.52 41.2715ZM45.5766 42.335L46.0721 43.1931L47.4592 42.3922L46.9638 41.5341L45.5766 42.335ZM46.0721 43.1931C46.5844 44.0804 47.5311 44.627 48.5557 44.627L48.5557 43.0252C48.1034 43.0252 47.6854 42.7839 47.4593 42.3922L46.0721 43.1931ZM48.5557 44.627H49.5466V43.0252H48.5557V44.627ZM49.1461 44.5197L51.4959 45.8764L52.2968 44.4892L49.947 43.1325L49.1461 44.5197ZM51.8963 45.9837H54.6096V44.3819H51.8963V45.9837ZM54.2092 45.8764L55.0657 46.3709L55.8666 44.9837L55.0101 44.4892L54.2092 45.8764ZM55.0657 46.3709C55.953 46.8831 57.0462 46.8831 57.9335 46.3709L57.1326 44.9837C56.7409 45.2099 56.2583 45.2099 55.8666 44.9837L55.0657 46.3709ZM57.9335 46.3709L58.79 45.8764L57.9891 44.4892L57.1326 44.9837L57.9335 46.3709ZM58.3896 45.9837H61.1028V44.3819H58.3896V45.9837ZM61.5033 45.8764L63.8531 44.5197L63.0522 43.1325L60.7024 44.4892L61.5033 45.8764ZM63.4526 44.627H64.4434V43.0253H63.4526V44.627ZM64.4434 44.627C65.4679 44.627 66.4147 44.0804 66.9269 43.1931L65.5398 42.3922C65.3136 42.7839 64.8957 43.0253 64.4434 43.0253V44.627ZM66.9269 43.1931L67.4223 42.3351L66.0351 41.5342L65.5398 42.3922L66.9269 43.1931ZM67.1292 42.6283L69.4789 41.2716L68.6781 39.8844L66.3283 41.2411L67.1292 42.6283ZM69.7721 40.9785L71.1287 38.6287L69.7416 37.8278L68.3849 40.1776L69.7721 40.9785ZM70.8356 38.9218L71.6926 38.427L70.8918 37.0398L70.0347 37.5347L70.8356 38.9218ZM71.6926 38.427C72.5799 37.9147 73.1265 36.968 73.1265 35.9434H71.5248C71.5248 36.3957 71.2835 36.8137 70.8918 37.0398L71.6926 38.427ZM73.1265 35.9434V34.9538H71.5248V35.9434H73.1265ZM73.0192 35.3542L74.3759 33.0045L72.9887 32.2036L71.6321 34.5533L73.0192 35.3542ZM74.4832 32.604V29.8907H72.8814V32.604H74.4832ZM54.121 23.8793C55.5932 23.0294 57.4071 23.0294 58.8793 23.8793L59.6802 22.4922C57.7124 21.3561 55.2879 21.3561 53.3201 22.4922L54.121 23.8793ZM51.7419 28.0001C51.7419 26.3002 52.6488 24.7293 54.121 23.8793L53.3201 22.4922C51.3523 23.6283 50.1401 25.7279 50.1401 28.0001H51.7419ZM54.121 32.1209C52.6488 31.2709 51.7419 29.7001 51.7419 28.0001H50.1401C50.1401 30.2724 51.3523 32.372 53.3201 33.5081L54.121 32.1209ZM58.8793 32.1209C57.4071 32.9709 55.5932 32.9709 54.121 32.1209L53.3201 33.5081C55.2879 34.6442 57.7124 34.6442 59.6802 33.5081L58.8793 32.1209ZM61.2584 28.0001C61.2584 29.7001 60.3515 31.2709 58.8793 32.1209L59.6802 33.5081C61.648 32.372 62.8602 30.2724 62.8602 28.0001H61.2584ZM58.8793 23.8793C60.3515 24.7293 61.2584 26.3002 61.2584 28.0001H62.8602C62.8602 25.7279 61.648 23.6283 59.6802 22.4922L58.8793 23.8793Z" fill="url(#paint0_linear_57_105)" mask="url(#path-1-inside-1_57_105)"/>
<path d="M4.27 78C4.102 78 3.962 77.944 3.85 77.832C3.738 77.72 3.682 77.5847 3.682 77.426V68.774H4.872V77.426C4.872 77.5847 4.816 77.72 4.704 77.832C4.592 77.944 4.44733 78 4.27 78ZM1.022 69.264C0.863333 69.264 0.728 69.2173 0.616 69.124C0.513333 69.0213 0.462 68.8907 0.462 68.732C0.462 68.5733 0.513333 68.4473 0.616 68.354C0.728 68.2513 0.863333 68.2 1.022 68.2H7.532C7.69067 68.2 7.826 68.2513 7.938 68.354C8.05 68.4473 8.106 68.5733 8.106 68.732C8.106 68.9 8.05 69.0307 7.938 69.124C7.826 69.2173 7.69067 69.264 7.532 69.264H1.022ZM19.4712 73.1C19.4712 73.8187 19.3545 74.486 19.1212 75.102C18.8878 75.7087 18.5612 76.2407 18.1412 76.698C17.7212 77.1553 17.2218 77.51 16.6432 77.762C16.0645 78.014 15.4345 78.14 14.7532 78.14C14.0625 78.14 13.4278 78.014 12.8492 77.762C12.2798 77.51 11.7852 77.1553 11.3652 76.698C10.9452 76.2407 10.6185 75.7087 10.3852 75.102C10.1518 74.486 10.0352 73.8187 10.0352 73.1C10.0352 72.372 10.1518 71.7047 10.3852 71.098C10.6185 70.482 10.9452 69.95 11.3652 69.502C11.7852 69.0447 12.2798 68.69 12.8492 68.438C13.4278 68.186 14.0625 68.06 14.7532 68.06C15.4345 68.06 16.0645 68.186 16.6432 68.438C17.2218 68.69 17.7212 69.0447 18.1412 69.502C18.5612 69.95 18.8878 70.482 19.1212 71.098C19.3545 71.7047 19.4712 72.372 19.4712 73.1ZM18.2672 73.1C18.2672 72.3347 18.1132 71.658 17.8052 71.07C17.5065 70.482 17.0958 70.02 16.5732 69.684C16.0505 69.348 15.4438 69.18 14.7532 69.18C14.0625 69.18 13.4512 69.348 12.9192 69.684C12.3965 70.02 11.9858 70.482 11.6872 71.07C11.3885 71.658 11.2392 72.3347 11.2392 73.1C11.2392 73.856 11.3885 74.5327 11.6872 75.13C11.9858 75.718 12.3965 76.18 12.9192 76.516C13.4512 76.852 14.0625 77.02 14.7532 77.02C15.4438 77.02 16.0505 76.852 16.5732 76.516C17.0958 76.18 17.5065 75.718 17.8052 75.13C18.1132 74.5327 18.2672 73.856 18.2672 73.1ZM29.3646 78.028C29.1966 78.028 29.0566 77.958 28.9446 77.818L25.2206 73.072L26.0746 72.204L29.8686 77.062C29.9526 77.1833 29.9946 77.3093 29.9946 77.44C29.9946 77.6267 29.9246 77.7713 29.7846 77.874C29.6539 77.9767 29.5139 78.028 29.3646 78.028ZM29.3226 68.186C29.4719 68.186 29.5932 68.2467 29.6866 68.368C29.7892 68.4893 29.8406 68.6153 29.8406 68.746C29.8406 68.8767 29.7846 68.998 29.6726 69.11L23.4846 74.962L23.3866 73.66L28.8746 68.396C29.0146 68.256 29.1639 68.186 29.3226 68.186ZM23.0226 78C22.8452 78 22.7052 77.944 22.6026 77.832C22.4999 77.72 22.4486 77.5847 22.4486 77.426V68.774C22.4486 68.606 22.5046 68.4707 22.6166 68.368C22.7286 68.256 22.8686 68.2 23.0366 68.2C23.2139 68.2 23.3539 68.256 23.4566 68.368C23.5592 68.4707 23.6106 68.606 23.6106 68.774V77.426C23.6106 77.5847 23.5546 77.72 23.4426 77.832C23.3399 77.944 23.1999 78 23.0226 78ZM33.4938 68.2H38.4778C38.6365 68.2 38.7718 68.2513 38.8838 68.354C38.9958 68.4567 39.0518 68.5873 39.0518 68.746C39.0518 68.9047 38.9958 69.0353 38.8838 69.138C38.7718 69.2313 38.6365 69.278 38.4778 69.278H33.9698L34.0958 69.04V72.582L33.9558 72.428H37.8478C38.0065 72.428 38.1418 72.4793 38.2538 72.582C38.3658 72.6847 38.4218 72.8153 38.4218 72.974C38.4218 73.1327 38.3658 73.2633 38.2538 73.366C38.1418 73.4593 38.0065 73.506 37.8478 73.506H33.9978L34.0958 73.38V77.006L34.0118 76.908H38.4778C38.6365 76.908 38.7718 76.964 38.8838 77.076C38.9958 77.188 39.0518 77.314 39.0518 77.454C39.0518 77.6127 38.9958 77.7433 38.8838 77.846C38.7718 77.9487 38.6365 78 38.4778 78H33.4938C33.3351 78 33.1998 77.944 33.0878 77.832C32.9851 77.72 32.9338 77.5847 32.9338 77.426V68.76C32.9338 68.6013 32.9851 68.4707 33.0878 68.368C33.1998 68.256 33.3351 68.2 33.4938 68.2ZM49.2902 68.2C49.4488 68.2 49.5748 68.2513 49.6682 68.354C49.7615 68.4473 49.8082 68.5687 49.8082 68.718V77.412C49.8082 77.5893 49.7522 77.734 49.6402 77.846C49.5282 77.9487 49.3928 78 49.2342 78C49.1502 78 49.0662 77.986 48.9822 77.958C48.8982 77.9207 48.8328 77.874 48.7862 77.818L42.7942 69.894L43.0742 69.726V77.482C43.0742 77.6313 43.0228 77.7573 42.9202 77.86C42.8268 77.9533 42.7008 78 42.5422 78C42.3928 78 42.2715 77.9533 42.1782 77.86C42.0848 77.7573 42.0382 77.6313 42.0382 77.482V68.76C42.0382 68.592 42.0895 68.4567 42.1922 68.354C42.3042 68.2513 42.4348 68.2 42.5842 68.2C42.6682 68.2 42.7522 68.2187 42.8362 68.256C42.9295 68.284 42.9995 68.3307 43.0462 68.396L48.9542 76.208L48.7722 76.432V68.718C48.7722 68.5687 48.8188 68.4473 48.9122 68.354C49.0148 68.2513 49.1408 68.2 49.2902 68.2ZM54.5467 77.426C54.5467 77.5847 54.4861 77.72 54.3647 77.832C54.2527 77.944 54.1174 78 53.9587 78C53.7814 78 53.6414 77.944 53.5387 77.832C53.4361 77.72 53.3847 77.5847 53.3847 77.426V68.774C53.3847 68.606 53.4407 68.4707 53.5527 68.368C53.6647 68.256 53.8047 68.2 53.9727 68.2C54.1314 68.2 54.2667 68.256 54.3787 68.368C54.4907 68.4707 54.5467 68.606 54.5467 68.774V77.426ZM64.7218 68.2C64.8898 68.2 65.0344 68.2513 65.1558 68.354C65.2771 68.4567 65.3378 68.5873 65.3378 68.746C65.3378 68.8673 65.2958 68.984 65.2118 69.096L59.1918 77.02L59.1078 76.922H64.6658C64.8244 76.922 64.9598 76.9733 65.0718 77.076C65.1838 77.1787 65.2398 77.3047 65.2398 77.454C65.2398 77.6127 65.1838 77.7433 65.0718 77.846C64.9598 77.9487 64.8244 78 64.6658 78H58.1558C57.9878 78 57.8478 77.9393 57.7358 77.818C57.6238 77.6967 57.5678 77.5707 57.5678 77.44C57.5678 77.3187 57.6098 77.202 57.6938 77.09L63.6998 69.194L63.8118 69.264H58.5758C58.4171 69.264 58.2818 69.2127 58.1698 69.11C58.0578 69.0073 58.0018 68.8813 58.0018 68.732C58.0018 68.5733 58.0578 68.4473 58.1698 68.354C58.2818 68.2513 58.4171 68.2 58.5758 68.2H64.7218ZM71.6866 69.656L68.3966 77.664C68.3592 77.776 68.2939 77.8647 68.2006 77.93C68.1072 77.9953 68.0092 78.028 67.9066 78.028C67.7292 78.028 67.5986 77.9813 67.5146 77.888C67.4306 77.7947 67.3886 77.6827 67.3886 77.552C67.3792 77.4867 67.3886 77.4167 67.4166 77.342L71.0426 68.522C71.0892 68.3913 71.1592 68.298 71.2526 68.242C71.3552 68.1767 71.4672 68.1487 71.5886 68.158C71.7099 68.158 71.8172 68.1907 71.9106 68.256C72.0132 68.3213 72.0832 68.41 72.1206 68.522L75.7326 77.258C75.7606 77.3327 75.7746 77.4073 75.7746 77.482C75.7746 77.65 75.7186 77.7853 75.6066 77.888C75.4946 77.9813 75.3686 78.028 75.2286 78.028C75.1166 78.028 75.0139 77.9953 74.9206 77.93C74.8272 77.8647 74.7572 77.7713 74.7106 77.65L71.3786 69.642L71.6866 69.656ZM69.0966 75.382L69.5726 74.29H73.7306L73.9406 75.382H69.0966ZM80.7691 78C80.6011 78 80.4611 77.944 80.3491 77.832C80.2371 77.72 80.1811 77.5847 80.1811 77.426V68.774H81.3711V77.426C81.3711 77.5847 81.3151 77.72 81.2031 77.832C81.0911 77.944 80.9464 78 80.7691 78ZM77.5211 69.264C77.3624 69.264 77.2271 69.2173 77.1151 69.124C77.0124 69.0213 76.9611 68.8907 76.9611 68.732C76.9611 68.5733 77.0124 68.4473 77.1151 68.354C77.2271 68.2513 77.3624 68.2 77.5211 68.2H84.0311C84.1897 68.2 84.3251 68.2513 84.4371 68.354C84.5491 68.4473 84.6051 68.5733 84.6051 68.732C84.6051 68.9 84.5491 69.0307 84.4371 69.124C84.3251 69.2173 84.1897 69.264 84.0311 69.264H77.5211ZM88.5717 77.426C88.5717 77.5847 88.511 77.72 88.3897 77.832C88.2777 77.944 88.1423 78 87.9837 78C87.8063 78 87.6663 77.944 87.5637 77.832C87.461 77.72 87.4097 77.5847 87.4097 77.426V68.774C87.4097 68.606 87.4657 68.4707 87.5777 68.368C87.6897 68.256 87.8297 68.2 87.9977 68.2C88.1563 68.2 88.2917 68.256 88.4037 68.368C88.5157 68.4707 88.5717 68.606 88.5717 68.774V77.426ZM100.987 73.1C100.987 73.8187 100.87 74.486 100.637 75.102C100.403 75.7087 100.077 76.2407 99.6567 76.698C99.2367 77.1553 98.7374 77.51 98.1587 77.762C97.58 78.014 96.95 78.14 96.2687 78.14C95.578 78.14 94.9434 78.014 94.3647 77.762C93.7954 77.51 93.3007 77.1553 92.8807 76.698C92.4607 76.2407 92.134 75.7087 91.9007 75.102C91.6674 74.486 91.5507 73.8187 91.5507 73.1C91.5507 72.372 91.6674 71.7047 91.9007 71.098C92.134 70.482 92.4607 69.95 92.8807 69.502C93.3007 69.0447 93.7954 68.69 94.3647 68.438C94.9434 68.186 95.578 68.06 96.2687 68.06C96.95 68.06 97.58 68.186 98.1587 68.438C98.7374 68.69 99.2367 69.0447 99.6567 69.502C100.077 69.95 100.403 70.482 100.637 71.098C100.87 71.7047 100.987 72.372 100.987 73.1ZM99.7827 73.1C99.7827 72.3347 99.6287 71.658 99.3207 71.07C99.022 70.482 98.6114 70.02 98.0887 69.684C97.566 69.348 96.9594 69.18 96.2687 69.18C95.578 69.18 94.9667 69.348 94.4347 69.684C93.912 70.02 93.5014 70.482 93.2027 71.07C92.904 71.658 92.7547 72.3347 92.7547 73.1C92.7547 73.856 92.904 74.5327 93.2027 75.13C93.5014 75.718 93.912 76.18 94.4347 76.516C94.9667 76.852 95.578 77.02 96.2687 77.02C96.9594 77.02 97.566 76.852 98.0887 76.516C98.6114 76.18 99.022 75.718 99.3207 75.13C99.6287 74.5327 99.7827 73.856 99.7827 73.1ZM111.216 68.2C111.375 68.2 111.501 68.2513 111.594 68.354C111.687 68.4473 111.734 68.5687 111.734 68.718V77.412C111.734 77.5893 111.678 77.734 111.566 77.846C111.454 77.9487 111.319 78 111.16 78C111.076 78 110.992 77.986 110.908 77.958C110.824 77.9207 110.759 77.874 110.712 77.818L104.72 69.894L105 69.726V77.482C105 77.6313 104.949 77.7573 104.846 77.86C104.753 77.9533 104.627 78 104.468 78C104.319 78 104.197 77.9533 104.104 77.86C104.011 77.7573 103.964 77.6313 103.964 77.482V68.76C103.964 68.592 104.015 68.4567 104.118 68.354C104.23 68.2513 104.361 68.2 104.51 68.2C104.594 68.2 104.678 68.2187 104.762 68.256C104.855 68.284 104.925 68.3307 104.972 68.396L110.88 76.208L110.698 76.432V68.718C110.698 68.5687 110.745 68.4473 110.838 68.354C110.941 68.2513 111.067 68.2 111.216 68.2Z" fill="white"/>
<defs>
<linearGradient id="paint0_linear_57_105" x1="28.5" y1="28.5296" x2="84.4181" y2="28.5296" gradientUnits="userSpaceOnUse">
<stop stop-color="white"/>
<stop offset="1" stop-color="#ACACAD"/>
</linearGradient>
</defs>
</svg>
