<svg width="50" height="50" viewBox="0 0 50 50" fill="none" xmlns="http://www.w3.org/2000/svg">
<line x1="39.6584" y1="8.94336" x2="39.6584" y2="40.3396" stroke="#5E5ADB" stroke-opacity="0.2" stroke-width="0.637099"/>
<line x1="12.1857" y1="8.94336" x2="12.1857" y2="40.3396" stroke="#5E5ADB" stroke-opacity="0.2" stroke-width="0.637099"/>
<line x1="42.2832" y1="12.2053" x2="7.94358" y2="12.2053" stroke="#5E5ADB" stroke-opacity="0.2" stroke-width="0.637099"/>
<line x1="42.2832" y1="37.715" x2="7.94358" y2="37.715" stroke="#5E5ADB" stroke-opacity="0.2" stroke-width="0.637099"/>
<circle cx="25.1123" cy="25.1338" r="23.5727" fill="#5E5ADB" fill-opacity="0.2" stroke="#5E5ADB" stroke-width="1.9113"/>
<circle cx="25.7534" cy="24.6421" r="13.7358" fill="white"/>
<path d="M19.0407 18.6328L19.4786 18.195C20.4365 17.2371 21.9895 17.2371 22.9474 18.195L23.7069 18.9544C24.4877 19.7352 24.6505 20.9414 24.1047 21.9013L24.0598 21.9802C23.6225 22.7492 23.6246 23.7008 24.1433 24.4175C24.4017 24.7745 24.6936 25.1444 24.9709 25.4217C25.2482 25.699 25.6181 25.991 25.9751 26.2493C26.6918 26.768 27.6434 26.7701 28.4124 26.3328L28.4913 26.2879C29.4512 25.7421 30.6574 25.9049 31.4382 26.6857L32.1976 27.4452C33.1555 28.4031 33.1555 29.9561 32.1976 30.914L31.7598 31.3519C31.2998 31.8119 30.6731 32.0681 30.0406 31.9161C28.6889 31.5913 26.0841 30.5818 22.9474 27.4452C19.8108 24.3086 18.8014 21.7037 18.4765 20.352C18.3245 19.7195 18.5807 19.0928 19.0407 18.6328Z" fill="#5E5ADB"/>
</svg>
