<svg width="50" height="50" viewBox="0 0 50 50" fill="none" xmlns="http://www.w3.org/2000/svg">
<line x1="39.8247" y1="8.5" x2="39.8247" y2="40.5" stroke="#D92D20" stroke-opacity="0.2" stroke-width="0.649351"/>
<line x1="11.8247" y1="8.5" x2="11.8247" y2="40.5" stroke="#D92D20" stroke-opacity="0.2" stroke-width="0.649351"/>
<line x1="42.5" y1="11.8247" x2="7.5" y2="11.8247" stroke="#D92D20" stroke-opacity="0.2" stroke-width="0.649351"/>
<line x1="42.5" y1="37.8247" x2="7.5" y2="37.8247" stroke="#D92D20" stroke-opacity="0.2" stroke-width="0.649351"/>
<circle cx="25" cy="25" r="24.026" fill="#D92D20" fill-opacity="0.2" stroke="#D92D20" stroke-width="1.94805"/>
<circle cx="25.5" cy="24.5" r="14" fill="white"/>
<path d="M18.6589 18.3758L19.1052 17.9295C20.0815 16.9532 21.6644 16.9532 22.6407 17.9295L23.4148 18.7036C24.2105 19.4994 24.3765 20.7288 23.8202 21.7071L23.7745 21.7875C23.3288 22.5713 23.3309 23.5412 23.8595 24.2716C24.1229 24.6356 24.4204 25.0125 24.7031 25.2952C24.9858 25.5779 25.3627 25.8754 25.7266 26.1388C26.4571 26.6674 27.427 26.6695 28.2108 26.2238L28.2912 26.1781C29.2695 25.6218 30.4989 25.7877 31.2947 26.5835L32.0688 27.3576C33.0451 28.3339 33.0451 29.9168 32.0688 30.8931L31.6225 31.3394C31.1537 31.8082 30.515 32.0694 29.8703 31.9145C28.4926 31.5834 25.8376 30.5545 22.6407 27.3576C19.4437 24.1606 18.4149 21.5057 18.0838 20.128C17.9288 19.4833 18.19 18.8446 18.6589 18.3758Z" fill="#D92D20"/>
</svg>
