<svg width="50" height="50" viewBox="0 0 50 50" fill="none" xmlns="http://www.w3.org/2000/svg">
<line x1="39.0959" y1="8.94336" x2="39.0959" y2="40.3396" stroke="#5E5ADB" stroke-opacity="0.2" stroke-width="0.637099"/>
<line x1="11.6213" y1="8.94336" x2="11.6213" y2="40.3396" stroke="#5E5ADB" stroke-opacity="0.2" stroke-width="0.637099"/>
<line x1="41.7187" y1="12.2053" x2="7.37913" y2="12.2053" stroke="#5E5ADB" stroke-opacity="0.2" stroke-width="0.637099"/>
<line x1="41.7187" y1="37.715" x2="7.37913" y2="37.715" stroke="#5E5ADB" stroke-opacity="0.2" stroke-width="0.637099"/>
<circle cx="24.5478" cy="25.1338" r="23.5727" fill="#31B550" fill-opacity="0.2" stroke="#31B550" stroke-width="1.9113"/>
<circle cx="25.1128" cy="24.6421" r="13.7358" fill="white"/>
<path d="M18.4001 18.6328L18.838 18.195C19.7959 17.2371 21.3489 17.2371 22.3068 18.195L23.0663 18.9544C23.847 19.7352 24.0099 20.9414 23.4641 21.9013L23.4192 21.9802C22.9819 22.7492 22.984 23.7008 23.5026 24.4175C23.761 24.7745 24.0529 25.1444 24.3303 25.4217C24.6076 25.699 24.9775 25.991 25.3345 26.2493C26.0512 26.768 27.0028 26.7701 27.7718 26.3328L27.8507 26.2879C28.8105 25.7421 30.0168 25.9049 30.7975 26.6857L31.557 27.4452C32.5149 28.4031 32.5149 29.9561 31.557 30.914L31.1191 31.3519C30.6592 31.8119 30.0325 32.0681 29.4 31.9161C28.0483 31.5913 25.4434 30.5818 22.3068 27.4452C19.1702 24.3086 18.1607 21.7037 17.8359 20.352C17.6838 19.7195 17.9401 19.0928 18.4001 18.6328Z" fill="#31B550"/>
</svg>
