<svg width="48" height="48" viewBox="0 0 48 48" fill="none" xmlns="http://www.w3.org/2000/svg">
<g clip-path="url(#clip0_2619_17576)">
<path d="M17.0321 12.1697L12.079 19.2166C11.9898 19.3415 11.9781 19.5058 12.0489 19.642C12.1196 19.7782 12.2607 19.8632 12.4141 19.8621H14.8969V21.1035C14.8962 24.1858 16.2267 27.1182 18.5466 29.1476L19.5645 30.0373C20.8058 31.1246 21.5176 32.6947 21.5176 34.3449V35.5862C21.5176 35.8148 21.7028 36 21.9314 36H26.0693C26.2978 36 26.4831 35.8148 26.4831 35.5862V34.3449C26.4754 31.2644 25.1465 28.3353 22.8335 26.3007L21.8155 25.4111C20.5742 24.3237 19.8624 22.7537 19.8624 21.1035V19.8621H22.3452C22.4986 19.8632 22.6397 19.7782 22.7105 19.642C22.7812 19.5058 22.7695 19.3415 22.6803 19.2166L17.7024 12.1697C17.6244 12.0625 17.4998 11.999 17.3672 11.999C17.2347 11.999 17.1101 12.0625 17.0321 12.1697Z" fill="#A1A9B8"/>
<path d="M25.2414 19.4524C25.2418 19.5617 25.2857 19.6663 25.3633 19.7431C25.4409 19.8199 25.5459 19.8628 25.6551 19.8621H28.1379V21.1035C28.138 22.7537 27.4261 24.3237 26.1848 25.4111L25.1669 26.3007C24.9558 26.4869 24.7531 26.6814 24.5586 26.88C24.5834 26.9131 24.6124 26.9421 24.6372 26.9752C25.8224 28.3934 26.6472 30.0771 27.0414 31.8828C27.3741 31.1782 27.8489 30.5499 28.4358 30.0373L29.4538 29.1476C31.7737 27.1182 33.1041 24.1858 33.1034 21.1035V19.8621H35.5862C35.7396 19.8632 35.8807 19.7782 35.9515 19.642C36.0222 19.5058 36.0105 19.3415 35.9214 19.2166L30.9434 12.1697C30.8654 12.0625 30.7408 11.999 30.6082 11.999C30.4757 11.999 30.3511 12.0625 30.2731 12.1697L25.32 19.2166C25.2696 19.285 25.2421 19.3675 25.2414 19.4524Z" fill="#A1A9B8"/>
</g>
<defs>
<clipPath id="clip0_2619_17576">
<rect width="24" height="24" fill="white" transform="translate(12 12)"/>
</clipPath>
</defs>
</svg>
