<svg width="50" height="50" viewBox="0 0 50 50" fill="none" xmlns="http://www.w3.org/2000/svg">
<circle cx="25" cy="25" r="24.359" stroke="#D7D7D7" stroke-width="1.28205"/>
<path d="M34.1888 17.094H17.0948C15.9195 17.094 14.9687 18.0555 14.9687 19.2307L14.958 32.0513C14.958 33.2265 15.9195 34.188 17.0948 34.188H34.1888C35.364 34.188 36.3255 33.2265 36.3255 32.0513V19.2307C36.3255 18.0555 35.364 17.094 34.1888 17.094ZM33.7614 21.6346L26.208 26.3568C25.8661 26.5705 25.4174 26.5705 25.0755 26.3568L17.5221 21.6346C17.415 21.5745 17.3212 21.4932 17.2464 21.3958C17.1715 21.2983 17.1173 21.1867 17.0868 21.0677C17.0564 20.9487 17.0504 20.8247 17.0693 20.7033C17.0881 20.5819 17.1314 20.4656 17.1966 20.3614C17.2617 20.2572 17.3472 20.1673 17.4481 20.0972C17.549 20.027 17.663 19.9781 17.7833 19.9533C17.9036 19.9285 18.0278 19.9284 18.1481 19.9529C18.2685 19.9775 18.3826 20.0262 18.4836 20.0961L25.6418 24.5726L32.7999 20.0961C32.9009 20.0262 33.015 19.9775 33.1354 19.9529C33.2558 19.9284 33.3799 19.9285 33.5002 19.9533C33.6205 19.9781 33.7346 20.027 33.8354 20.0972C33.9363 20.1673 34.0219 20.2572 34.087 20.3614C34.1521 20.4656 34.1954 20.5819 34.2143 20.7033C34.2331 20.8247 34.2271 20.9487 34.1967 21.0677C34.1663 21.1867 34.112 21.2983 34.0372 21.3958C33.9624 21.4932 33.8686 21.5745 33.7614 21.6346Z" fill="#63666A"/>
</svg>
