<svg width="48" height="48" viewBox="0 0 48 48" fill="none" xmlns="http://www.w3.org/2000/svg">
<circle cx="24" cy="24" r="24" fill="#F5F5F5"/>
<path d="M16.2575 19.6395C16.2575 15.1442 19.7239 11.5 24 11.5C28.2761 11.5 31.7425 15.1442 31.7425 19.6395V23.1612C31.7425 24.6249 32.3536 26.0245 33.4329 27.0331C34.6189 28.1414 33.8207 30.1046 32.1841 30.1046H15.8159C14.1793 30.1046 13.3811 28.1414 14.5671 27.0331C15.6464 26.0245 16.2575 24.6249 16.2575 23.1612V19.6395Z" fill="#868FA0"/>
<path d="M24.0003 36.5C26.0995 36.5 27.8013 34.9011 27.8013 32.9286C27.8013 32.8952 27.8008 32.8618 27.7999 32.8286C27.7914 32.5405 27.5255 32.331 27.2188 32.3277L20.7969 32.2593C20.4902 32.256 20.2193 32.4598 20.204 32.7476C20.2008 32.8076 20.1992 32.8679 20.1992 32.9286C20.1992 34.9011 21.901 36.5 24.0003 36.5Z" fill="#868FA0"/>
<g filter="url(#filter0_dd_127_7257)">
<circle cx="32.75" cy="14" r="5" fill="#E01919"/>
</g>
<defs>
<filter id="filter0_dd_127_7257" x="25.25" y="6.5" width="15" height="16.25" filterUnits="userSpaceOnUse" color-interpolation-filters="sRGB">
<feFlood flood-opacity="0" result="BackgroundImageFix"/>
<feColorMatrix in="SourceAlpha" type="matrix" values="0 0 0 0 0 0 0 0 0 0 0 0 0 0 0 0 0 0 127 0" result="hardAlpha"/>
<feMorphology radius="2.5" operator="dilate" in="SourceAlpha" result="effect1_dropShadow_127_7257"/>
<feOffset/>
<feColorMatrix type="matrix" values="0 0 0 0 0.968627 0 0 0 0 0.975163 0 0 0 0 0.988235 0 0 0 1 0"/>
<feBlend mode="normal" in2="BackgroundImageFix" result="effect1_dropShadow_127_7257"/>
<feColorMatrix in="SourceAlpha" type="matrix" values="0 0 0 0 0 0 0 0 0 0 0 0 0 0 0 0 0 0 127 0" result="hardAlpha"/>
<feOffset dy="1.25"/>
<feGaussianBlur stdDeviation="1.25"/>
<feColorMatrix type="matrix" values="0 0 0 0 0 0 0 0 0 0 0 0 0 0 0 0 0 0 0.25 0"/>
<feBlend mode="normal" in2="effect1_dropShadow_127_7257" result="effect2_dropShadow_127_7257"/>
<feBlend mode="normal" in="SourceGraphic" in2="effect2_dropShadow_127_7257" result="shape"/>
</filter>
</defs>
</svg>
