<svg width="50" height="50" viewBox="0 0 50 50" fill="none" xmlns="http://www.w3.org/2000/svg">
<line x1="39.5236" y1="8.94336" x2="39.5236" y2="40.3396" stroke="#D92D20" stroke-opacity="0.2" stroke-width="0.637099"/>
<line x1="12.0529" y1="8.94336" x2="12.0529" y2="40.3396" stroke="#D92D20" stroke-opacity="0.2" stroke-width="0.637099"/>
<line x1="42.1484" y1="12.2053" x2="7.80882" y2="12.2053" stroke="#D92D20" stroke-opacity="0.2" stroke-width="0.637099"/>
<line x1="42.1484" y1="37.715" x2="7.80882" y2="37.715" stroke="#D92D20" stroke-opacity="0.2" stroke-width="0.637099"/>
<circle cx="24.9795" cy="25.1338" r="23.5727" fill="#D92D20" fill-opacity="0.2" stroke="#D92D20" stroke-width="1.9113"/>
<circle cx="25.4702" cy="24.6421" r="13.7358" fill="white"/>
<path d="M18.7575 18.6328L19.1954 18.195C20.1533 17.2371 21.7063 17.2371 22.6642 18.195L23.4237 18.9544C24.2045 19.7352 24.3673 20.9414 23.8215 21.9013L23.7766 21.9802C23.3393 22.7492 23.3414 23.7008 23.8601 24.4175C24.1185 24.7745 24.4104 25.1444 24.6877 25.4217C24.965 25.699 25.3349 25.991 25.6919 26.2493C26.4086 26.768 27.3602 26.7701 28.1292 26.3328L28.2081 26.2879C29.168 25.7421 30.3742 25.9049 31.155 26.6857L31.9144 27.4452C32.8723 28.4031 32.8723 29.9561 31.9144 30.914L31.4766 31.3519C31.0166 31.8119 30.3899 32.0681 29.7574 31.9161C28.4057 31.5913 25.8008 30.5818 22.6642 27.4452C19.5276 24.3086 18.5181 21.7037 18.1933 20.352C18.0413 19.7195 18.2975 19.0928 18.7575 18.6328Z" fill="#D92D20"/>
</svg>
