<svg width="13" height="9" viewBox="0 0 13 9" fill="none" xmlns="http://www.w3.org/2000/svg">
<path d="M12.75 8.25H9.10417V7.17857H10.974L7.02083 3.1125L4.78646 5.41607C4.73804 5.46628 4.68044 5.50614 4.61697 5.53333C4.5535 5.56053 4.48542 5.57453 4.41667 5.57453C4.34791 5.57453 4.27983 5.56053 4.21637 5.53333C4.1529 5.50614 4.09529 5.46628 4.04687 5.41607L0.25 1.50536L0.984375 0.75L4.41667 4.28036L6.65104 1.97679C6.69946 1.92657 6.75706 1.88672 6.82053 1.85952C6.884 1.83232 6.95208 1.81832 7.02083 1.81832C7.08959 1.81832 7.15767 1.83232 7.22113 1.85952C7.2846 1.88672 7.34221 1.92657 7.39062 1.97679L11.7083 6.42321V4.5H12.75V8.25Z" fill="#E01919"/>
</svg>
