<svg width="54" height="54" viewBox="0 0 54 54" fill="none" xmlns="http://www.w3.org/2000/svg">
<rect x="3" y="3" width="48" height="48" rx="24" fill="#31B550"/>
<g clip-path="url(#clip0_215_1464)">
<mask id="mask0_215_1464" style="mask-type:luminance" maskUnits="userSpaceOnUse" x="16" y="14" width="21" height="25">
<path d="M33.9412 15.6848H18.6471C17.9973 15.6848 17.4706 16.2115 17.4706 16.8613V35.6848C17.4706 36.3346 17.9973 36.8613 18.6471 36.8613H30.1917C22.7647 35.6848 30.7059 25.9784 35.1176 30.3901V16.8613C35.1176 16.2115 34.5909 15.6848 33.9412 15.6848Z" fill="white" stroke="white" stroke-width="2.35294" stroke-linejoin="round"/>
<path d="M21.588 22.1565H30.9997M21.588 26.8624H28.6468M21.588 31.5683H26.2939" stroke="black" stroke-width="2.35294" stroke-linecap="round" stroke-linejoin="round"/>
</mask>
<g mask="url(#mask0_215_1464)">
<path d="M12.1764 10.9783H40.4117V39.2136H12.1764V10.9783Z" fill="white"/>
</g>
<path d="M33.247 28.623C34.516 28.623 35.6905 29.0685 36.622 29.811C37.864 30.7965 38.647 32.322 38.647 34.023C38.647 37.0065 36.2305 39.423 33.247 39.423C31.8835 39.423 30.6415 38.91 29.683 38.073C28.5625 37.0875 27.847 35.643 27.847 34.023C27.847 31.0395 30.2635 28.623 33.247 28.623ZM31.897 34.3605C31.897 34.7115 32.086 35.049 32.383 35.2245L34.0705 36.237C34.2325 36.345 34.4215 36.3855 34.597 36.3855C34.9345 36.3855 35.272 36.21 35.461 35.8995C35.7445 35.4135 35.596 34.7925 35.11 34.509L33.9085 33.7935V32.3355C33.922 31.782 33.463 31.323 32.9095 31.323C32.356 31.323 31.897 31.782 31.897 32.3355V34.3605Z" fill="white" stroke="#31B550" stroke-width="0.84"/>
</g>
<rect x="3" y="3" width="48" height="48" rx="24" stroke="#31B550" stroke-opacity="0.1" stroke-width="6"/>
<defs>
<clipPath id="clip0_215_1464">
<rect width="22.8" height="26.4" fill="white" transform="translate(16.2 13.8)"/>
</clipPath>
</defs>
</svg>
