<svg width="50" height="50" viewBox="0 0 50 50" fill="none" xmlns="http://www.w3.org/2000/svg">
<line x1="39.9592" y1="8.94336" x2="39.9592" y2="40.3396" stroke="#E0BE2D" stroke-opacity="0.2" stroke-width="0.637099"/>
<line x1="12.4885" y1="8.94336" x2="12.4885" y2="40.3396" stroke="#E0BE2D" stroke-opacity="0.2" stroke-width="0.637099"/>
<line x1="42.584" y1="12.2053" x2="8.24436" y2="12.2053" stroke="#E0BE2D" stroke-opacity="0.2" stroke-width="0.637099"/>
<line x1="42.584" y1="37.715" x2="8.24436" y2="37.715" stroke="#E0BE2D" stroke-opacity="0.2" stroke-width="0.637099"/>
<circle cx="25.415" cy="25.1338" r="23.5727" fill="#E0BE2D" fill-opacity="0.2" stroke="#E0BE2D" stroke-width="1.9113"/>
<circle cx="25.9058" cy="24.6421" r="13.7358" fill="white"/>
<path fill-rule="evenodd" clip-rule="evenodd" d="M26.3976 32.4904C30.4615 32.4904 33.756 29.1959 33.756 25.1319C33.756 21.0679 30.4615 17.7734 26.3976 17.7734C22.3336 17.7734 19.0391 21.0679 19.0391 25.1319C19.0391 29.1959 22.3336 32.4904 26.3976 32.4904ZM26.3976 22.2703C26.3976 21.8187 26.0315 21.4527 25.5799 21.4527C25.1284 21.4527 24.7623 21.8187 24.7623 22.2703V26.3583C24.7623 26.8099 25.1284 27.176 25.5799 27.176H28.0328C28.4843 27.176 28.8504 26.8099 28.8504 26.3583C28.8504 25.9068 28.4843 25.5407 28.0328 25.5407H26.3976V22.2703Z" fill="#E0BE2D"/>
</svg>
