<svg width="54" height="54" viewBox="0 0 54 54" fill="none" xmlns="http://www.w3.org/2000/svg">
<rect x="3" y="3" width="48" height="48" rx="24" fill="#AE57D9"/>
<path d="M31.3412 22.3378C31.3412 25.2858 29.3502 27.6757 26.8941 27.6757C24.4381 27.6757 22.4471 25.2858 22.4471 22.3378C22.4471 19.3898 24.4381 17 26.8941 17C29.3502 17 31.3412 19.3898 31.3412 22.3378Z" fill="white"/>
<path d="M35.7882 35.6824C35.7882 38.9252 31.2604 37.8175 26.8941 37.8175C22.5278 37.8175 18 38.9252 18 35.6824C18 32.4396 22.5278 29.8108 26.8941 29.8108C31.2604 29.8108 35.7882 32.4396 35.7882 35.6824Z" fill="white"/>
<rect x="3" y="3" width="48" height="48" rx="24" stroke="#AE57D9" stroke-opacity="0.1" stroke-width="6"/>
</svg>
