<svg width="50" height="50" viewBox="0 0 50 50" fill="none" xmlns="http://www.w3.org/2000/svg">
<line x1="39.8247" y1="8.5" x2="39.8247" y2="40.5" stroke="#5E5ADB" stroke-opacity="0.2" stroke-width="0.649351"/>
<line x1="11.8247" y1="8.5" x2="11.8247" y2="40.5" stroke="#5E5ADB" stroke-opacity="0.2" stroke-width="0.649351"/>
<line x1="42.5" y1="11.8247" x2="7.5" y2="11.8247" stroke="#5E5ADB" stroke-opacity="0.2" stroke-width="0.649351"/>
<line x1="42.5" y1="37.8247" x2="7.5" y2="37.8247" stroke="#5E5ADB" stroke-opacity="0.2" stroke-width="0.649351"/>
<circle cx="25" cy="25" r="24.026" fill="#31B550" fill-opacity="0.2" stroke="#31B550" stroke-width="1.94805"/>
<circle cx="25.5" cy="24.5" r="14" fill="white"/>
<path d="M25.9999 25.8327C27.8408 25.8327 29.3332 24.3403 29.3332 22.4993C29.3332 20.6584 27.8408 19.166 25.9999 19.166C24.1589 19.166 22.6665 20.6584 22.6665 22.4993C22.6665 24.3403 24.1589 25.8327 25.9999 25.8327Z" fill="#31B550"/>
<path d="M21.2182 29.9993C20.0349 32.2244 23.9518 33.3327 25.9999 33.3327C28.0479 33.3327 31.9648 32.2244 30.7815 29.9993C29.8917 28.3261 28.0918 26.666 25.9999 26.666C23.9079 26.666 22.108 28.3261 21.2182 29.9993Z" fill="#31B550"/>
<path d="M22.2499 24.9993C22.2499 25.9198 21.5037 26.666 20.5832 26.666C19.6627 26.666 18.9165 25.9198 18.9165 24.9993C18.9165 24.0789 19.6627 23.3327 20.5832 23.3327C21.5037 23.3327 22.2499 24.0789 22.2499 24.9993Z" fill="#31B550"/>
<path d="M18.413 31.2032C18.2084 31.6154 17.7083 31.7837 17.296 31.5791C16.8838 31.3745 16.7155 30.8744 16.9201 30.4622C17.2262 29.8454 17.6896 29.2261 18.2726 28.7522C18.8557 28.2782 19.603 27.916 20.4558 27.916C20.9161 27.916 21.2892 28.2891 21.2892 28.7493C21.2892 29.2096 20.9161 29.5827 20.4558 29.5827C20.0884 29.5827 19.7005 29.7393 19.3239 30.0455C18.947 30.3518 18.6259 30.7742 18.413 31.2032Z" fill="#31B550"/>
<path d="M33.3416 24.9993C33.3416 25.9198 32.5954 26.666 31.6749 26.666C30.7544 26.666 30.0082 25.9198 30.0082 24.9993C30.0082 24.0789 30.7544 23.3327 31.6749 23.3327C32.5954 23.3327 33.3416 24.0789 33.3416 24.9993Z" fill="#31B550"/>
<path d="M35.0833 30.4622C35.2879 30.8744 35.1196 31.3745 34.7074 31.5791C34.2951 31.7837 33.795 31.6154 33.5904 31.2032C33.3775 30.7742 33.0564 30.3518 32.6795 30.0455C32.3029 29.7393 31.915 29.5827 31.5475 29.5827C31.0873 29.5827 30.7142 29.2096 30.7142 28.7493C30.7142 28.2891 31.0873 27.916 31.5475 27.916C32.4004 27.916 33.1477 28.2782 33.7308 28.7522C34.3138 29.2261 34.7772 29.8454 35.0833 30.4622Z" fill="#31B550"/>
</svg>
