<svg width="50" height="50" viewBox="0 0 50 50" fill="none" xmlns="http://www.w3.org/2000/svg">
<line x1="39.8247" y1="8.5" x2="39.8247" y2="40.5" stroke="#5E5ADB" stroke-opacity="0.2" stroke-width="0.649351"/>
<line x1="11.8247" y1="8.5" x2="11.8247" y2="40.5" stroke="#5E5ADB" stroke-opacity="0.2" stroke-width="0.649351"/>
<line x1="42.5" y1="11.8247" x2="7.5" y2="11.8247" stroke="#5E5ADB" stroke-opacity="0.2" stroke-width="0.649351"/>
<line x1="42.5" y1="37.8247" x2="7.5" y2="37.8247" stroke="#5E5ADB" stroke-opacity="0.2" stroke-width="0.649351"/>
<circle cx="25" cy="25" r="24.026" fill="#5E5ADB" fill-opacity="0.2" stroke="#5E5ADB" stroke-width="1.94805"/>
<circle cx="25.5" cy="24.5" r="14" fill="white"/>
<path d="M26.3327 24.5013C26.3327 24.0411 25.9596 23.668 25.4993 23.668C25.0391 23.668 24.666 24.0411 24.666 24.5013C24.666 24.9615 25.0391 25.3346 25.4993 25.3346C25.9596 25.3346 26.3327 24.9615 26.3327 24.5013Z" fill="#5E5ADB"/>
<path fill-rule="evenodd" clip-rule="evenodd" d="M19.666 18.668H31.3327C32.7134 18.668 33.8327 19.7873 33.8327 21.168V27.8346C33.8327 29.2153 32.7134 30.3346 31.3327 30.3346H19.666C18.2853 30.3346 17.166 29.2153 17.166 27.8346V21.168C17.166 19.7873 18.2853 18.668 19.666 18.668ZM19.666 19.918C19.2058 19.918 18.8327 20.2911 18.8327 20.7513C18.8327 21.2115 19.2058 21.5846 19.666 21.5846H21.3327C21.7929 21.5846 22.166 21.2115 22.166 20.7513C22.166 20.2911 21.7929 19.918 21.3327 19.918H19.666ZM28.8327 20.7513C28.8327 20.2911 29.2058 19.918 29.666 19.918H31.3327C31.7929 19.918 32.166 20.2911 32.166 20.7513C32.166 21.2115 31.7929 21.5846 31.3327 21.5846H29.666C29.2058 21.5846 28.8327 21.2115 28.8327 20.7513ZM19.666 27.418C19.2058 27.418 18.8327 27.7911 18.8327 28.2513C18.8327 28.7115 19.2058 29.0846 19.666 29.0846H21.3327C21.7929 29.0846 22.166 28.7115 22.166 28.2513C22.166 27.7911 21.7929 27.418 21.3327 27.418H19.666ZM28.8327 28.2513C28.8327 27.7911 29.2058 27.418 29.666 27.418H31.3327C31.7929 27.418 32.166 27.7911 32.166 28.2513C32.166 28.7115 31.7929 29.0846 31.3327 29.0846H29.666C29.2058 29.0846 28.8327 28.7115 28.8327 28.2513ZM25.4993 22.0013C26.8801 22.0013 27.9993 23.1206 27.9993 24.5013C27.9993 25.882 26.8801 27.0013 25.4993 27.0013C24.1186 27.0013 22.9993 25.882 22.9993 24.5013C22.9993 23.1206 24.1186 22.0013 25.4993 22.0013Z" fill="#5E5ADB"/>
</svg>
